<?xml version="1.0" encoding="UTF-8"?>
<svg width="180" height="180" viewBox="0 0 180 180" fill="none" xmlns="http://www.w3.org/2000/svg">
  <!-- Background -->
  <rect width="180" height="180" rx="45" fill="#4f46e5"/>
  
  <!-- Book Shape -->
  <path d="M40 45C40 42.2386 42.2386 40 45 40H135C137.761 40 140 42.2386 140 45V135C140 137.761 137.761 140 135 140H45C42.2386 140 40 137.761 40 135V45Z" fill="white"/>
  
  <!-- Book Lines -->
  <rect x="50" y="60" width="80" height="4" rx="2" fill="#E5E7EB"/>
  <rect x="50" y="75" width="80" height="4" rx="2" fill="#E5E7EB"/>
  <rect x="50" y="90" width="80" height="4" rx="2" fill="#E5E7EB"/>
  <rect x="50" y="105" width="80" height="4" rx="2" fill="#E5E7EB"/>
  <rect x="50" y="120" width="50" height="4" rx="2" fill="#E5E7EB"/>
  
  <!-- Sound Wave Icons (representing speech) -->
  <path d="M150 90C150 96.6274 144.627 102 138 102C131.373 102 126 96.6274 126 90C126 83.3726 131.373 78 138 78C144.627 78 150 83.3726 150 90Z" fill="#FEF3C7"/>
  <path d="M138 84V96M132 86V94M144 86V94" stroke="#4f46e5" stroke-width="3" stroke-linecap="round" stroke-linejoin="round"/>
  
  <!-- Microphone Icon (representing speech recognition) -->
  <path d="M30 90C30 96.6274 35.3726 102 42 102C48.6274 102 54 96.6274 54 90C54 83.3726 48.6274 78 42 78C35.3726 78 30 83.3726 30 90Z" fill="#FEF3C7"/>
  <path d="M42 84V96M36 90H48" stroke="#4f46e5" stroke-width="3" stroke-linecap="round" stroke-linejoin="round"/>
</svg>