<?xml version="1.0" encoding="UTF-8"?>
<svg width="32" height="32" viewBox="0 0 32 32" fill="none" xmlns="http://www.w3.org/2000/svg">
  <!-- Book Shape -->
  <path d="M5 5C5 4.44772 5.44772 4 6 4H26C26.5523 4 27 4.44772 27 5V27C27 27.5523 26.5523 28 26 28H6C5.44772 28 5 27.5523 5 27V5Z" fill="#4f46e5"/>
  
  <!-- Book Pages -->
  <path d="M7 7H25V25H7V7Z" fill="white"/>
  
  <!-- Book Lines -->
  <rect x="9" y="10" width="14" height="1" rx="0.5" fill="#E5E7EB"/>
  <rect x="9" y="13" width="14" height="1" rx="0.5" fill="#E5E7EB"/>
  <rect x="9" y="16" width="14" height="1" rx="0.5" fill="#E5E7EB"/>
  <rect x="9" y="19" width="14" height="1" rx="0.5" fill="#E5E7EB"/>
  <rect x="9" y="22" width="8" height="1" rx="0.5" fill="#E5E7EB"/>
  
  <!-- Sound Wave (small indicator) -->
  <path d="M28 16C28 16.5523 27.5523 17 27 17C26.4477 17 26 16.5523 26 16C26 15.4477 26.4477 15 27 15C27.5523 15 28 15.4477 28 16Z" fill="#FEF3C7"/>
</svg>