<svg xmlns="http://www.w3.org/2000/svg" width="2048" height="2048" viewBox="0 0 2048 2048" version="1.1">
	<rect x="0" y="0" width="100%" height="100%" fill="#00000000" />
	<path d="M 1316 291.577 C 1305.825 292.299, 1270.725 294.717, 1238 296.949 C 1205.275 299.182, 1163.200 302.131, 1144.500 303.503 C 1125.800 304.875, 1088.675 307.564, 1062 309.479 C 1035.325 311.393, 994.600 314.327, 971.500 315.998 C 948.400 317.670, 904.525 320.831, 874 323.023 C 843.475 325.214, 810.175 327.681, 800 328.504 C 789.825 329.326, 768.450 330.909, 752.500 332.020 C 736.550 333.131, 710 335.132, 693.500 336.466 C 677 337.801, 650.900 339.858, 635.500 341.039 L 607.500 343.186 591.757 348.109 C 546.545 362.248, 479.771 398.435, 444.889 427.701 C 431.170 439.212, 424.885 447.316, 419.219 460.800 C 416.418 467.468, 416.279 468.308, 417.574 470.790 C 418.352 472.281, 418.990 474.699, 418.994 476.165 C 418.997 477.631, 422.627 495.631, 427.059 516.165 C 431.491 536.699, 438.216 568.575, 442.002 587 C 445.789 605.425, 450.228 626.800, 451.866 634.500 C 453.505 642.200, 456.891 658.400, 459.390 670.500 C 461.889 682.600, 466.671 705.550, 470.017 721.500 C 473.362 737.450, 480.592 772.325, 486.082 799 C 491.573 825.675, 497.609 854.700, 499.495 863.500 C 502.642 878.181, 505.949 894.160, 521.535 970 C 524.531 984.575, 526.986 997.027, 526.991 997.671 C 526.996 998.315, 522.613 1001.063, 517.250 1003.777 C 495.577 1014.749, 482.786 1024.003, 465.939 1040.901 C 445.271 1061.633, 432.734 1082.811, 423.474 1112.638 C 413.647 1144.289, 408.968 1178.964, 410.716 1207.169 L 411.502 1219.838 406.061 1222.094 C 395.698 1226.389, 389 1234.790, 389 1243.492 C 389 1249.453, 390.910 1253.846, 395.400 1258.206 L 399.039 1261.740 395.376 1267.120 C 387.167 1279.173, 381.032 1297.509, 375.842 1325.500 C 373.234 1339.563, 372.675 1362.782, 374.777 1369.708 C 378.891 1383.261, 392.570 1390.075, 403.856 1384.192 C 406.911 1382.599, 408.162 1382.342, 408.424 1383.250 C 408.623 1383.937, 409.303 1387.027, 409.934 1390.115 C 410.566 1393.203, 412.586 1398.828, 414.424 1402.615 C 421.430 1417.053, 432.245 1422.696, 445.384 1418.770 C 453.029 1416.486, 460.014 1407.128, 463.046 1395.106 L 464.155 1390.711 468.685 1395.890 C 474.321 1402.332, 479.665 1405.123, 487.583 1405.759 C 499.087 1406.682, 507.514 1401.813, 513.122 1391 C 515.111 1387.166, 515.457 1385.020, 515.461 1376.500 C 515.465 1366.109, 514.081 1360.265, 508.433 1346.842 C 507.123 1343.730, 504.959 1338.281, 503.624 1334.732 L 501.195 1328.281 507.848 1328.737 C 513.725 1329.140, 515.128 1328.861, 519.892 1326.346 C 526.919 1322.637, 530.544 1317.995, 532.550 1310.137 C 535.690 1297.831, 531.372 1285.816, 519.132 1272.803 C 512.291 1265.530, 496.988 1254.083, 491.982 1252.494 C 490.176 1251.921, 489.965 1251.385, 490.665 1249.156 C 491.124 1247.695, 491.488 1243.523, 491.472 1239.885 C 491.449 1234.358, 490.989 1232.581, 488.673 1229.082 C 485.731 1224.636, 477.904 1219, 474.671 1219 C 472.807 1219, 472.754 1218.318, 473.263 1200.750 C 473.807 1181.967, 474.932 1174.426, 479.696 1157.632 C 486.816 1132.527, 499.980 1109.950, 516.966 1093.710 C 525.613 1085.443, 541.630 1073.296, 542.602 1074.268 C 542.890 1074.556, 544.013 1079.001, 545.098 1084.146 C 552.438 1118.944, 588.743 1295.957, 602.495 1364 C 612.243 1412.230, 615.593 1427.771, 618.444 1438 C 619.747 1442.675, 621.304 1449.200, 621.904 1452.500 C 623.397 1460.711, 629.715 1473.410, 635.481 1479.794 C 641.703 1486.680, 650.767 1493.086, 661.156 1497.940 C 676.265 1504.997, 691.396 1507.854, 718.145 1508.700 C 733.225 1509.176, 738.483 1508.970, 745.645 1507.621 C 754.621 1505.930, 771.261 1503.845, 862 1493.042 C 889.775 1489.736, 922.175 1485.879, 934 1484.471 C 945.825 1483.064, 956.904 1481.668, 958.620 1481.369 C 961.683 1480.836, 961.798 1480.963, 964.802 1488.180 C 970.060 1500.808, 972.124 1509.646, 972.711 1522.037 C 973.595 1540.702, 970.139 1551.156, 959.766 1561.198 L 953.881 1566.896 949.417 1563.489 C 944.428 1559.680, 940.016 1558.513, 933.419 1559.256 C 928.155 1559.850, 921.495 1563.965, 919.162 1568.066 C 917.526 1570.942, 917.366 1570.987, 908.799 1570.994 C 895.297 1571.003, 880.311 1574.664, 871 1580.227 C 863.831 1584.510, 860.234 1590.015, 855.712 1603.630 C 843.950 1639.037, 848.139 1687.618, 866.007 1723.015 C 867.691 1726.350, 868.759 1729.581, 868.380 1730.194 C 868.001 1730.807, 868.128 1731.039, 868.662 1730.709 C 869.958 1729.908, 873.311 1735.688, 872.403 1737.157 C 871.983 1737.836, 872.129 1738.038, 872.759 1737.649 C 873.366 1737.274, 876.182 1740.333, 879.290 1744.745 C 888.223 1757.424, 889.137 1757.934, 907.833 1760.647 C 922.004 1762.704, 970.720 1762.958, 989.500 1761.074 C 1023.721 1757.639, 1032.046 1751.565, 1028.964 1732.276 C 1024.636 1705.183, 1001.839 1685.516, 972.039 1683.167 L 963.577 1682.500 962.371 1676.500 C 961.708 1673.200, 960.892 1668.697, 960.558 1666.494 L 959.950 1662.487 965.221 1660.615 C 975.198 1657.071, 981 1647.979, 981 1635.886 L 981 1631.134 989.521 1625.987 C 1014.628 1610.822, 1032.810 1591.928, 1042.177 1571.270 C 1052.976 1547.454, 1053.171 1512.652, 1042.690 1479.774 L 1040.228 1472.048 1043.364 1471.603 C 1046.211 1471.200, 1084.449 1466.504, 1171 1455.930 C 1188.325 1453.813, 1209.925 1451.136, 1219 1449.980 C 1232.423 1448.270, 1236.236 1448.094, 1239.446 1449.038 C 1250.861 1452.393, 1278.703 1467.885, 1291.182 1477.825 C 1299.776 1484.670, 1311.495 1496.931, 1320.650 1508.655 C 1326.844 1516.588, 1343 1542.058, 1343 1543.891 C 1343 1544.364, 1341.815 1547.395, 1340.367 1550.626 C 1334.762 1563.131, 1337.680 1574.152, 1347.916 1579.139 L 1353.333 1581.778 1358.432 1593.639 C 1367.698 1615.195, 1381.741 1638.872, 1390.388 1647.518 C 1398.884 1656.015, 1402.564 1657.504, 1415 1657.478 C 1423.334 1657.461, 1426.944 1656.971, 1432.500 1655.103 C 1452.434 1648.402, 1468.180 1637.025, 1495.500 1609.581 C 1526.562 1578.379, 1539.597 1561.703, 1551.061 1538.500 C 1561.164 1518.051, 1563.321 1503.548, 1557.930 1492.314 C 1552.540 1481.082, 1537.184 1470.011, 1521.391 1465.972 C 1510.868 1463.281, 1495.101 1463.295, 1484.410 1466.005 C 1473.757 1468.706, 1460.212 1475.395, 1450.500 1482.751 C 1442.634 1488.709, 1428.378 1502.729, 1422.376 1510.410 L 1419.321 1514.321 1415.213 1510.213 C 1410.508 1505.508, 1404.693 1503.496, 1398.323 1504.369 L 1394.126 1504.944 1387.316 1493.722 C 1377.999 1478.368, 1365.201 1461.576, 1353.108 1448.839 L 1342.987 1438.178 1346.743 1437.575 C 1348.809 1437.244, 1377.950 1433.590, 1411.500 1429.456 C 1517.475 1416.397, 1516.606 1416.539, 1525.359 1410.988 C 1532.552 1406.426, 1537.980 1396.644, 1537.994 1388.218 C 1538.007 1380.944, 1531.817 1372.085, 1525.196 1369.900 L 1521.748 1368.762 1522.400 1362.398 C 1523.398 1352.662, 1528.786 1332.530, 1533.025 1322.696 C 1538.128 1310.860, 1546.535 1296.995, 1553.657 1288.669 C 1558.728 1282.740, 1560.549 1281.388, 1567.439 1278.441 C 1576.387 1274.613, 1581.029 1271.229, 1585.724 1265.112 C 1590.425 1258.989, 1592 1252.525, 1592 1239.359 C 1592 1229.481, 1591.124 1223.574, 1584.942 1191.790 C 1581.060 1171.831, 1576.822 1149.875, 1575.524 1143 C 1572.656 1127.806, 1562.981 1078.048, 1558.920 1057.603 C 1557.293 1049.409, 1556.083 1042.586, 1556.231 1042.439 C 1556.379 1042.293, 1558.525 1042.565, 1561 1043.043 C 1567.888 1044.374, 1582.448 1044.148, 1593 1042.545 C 1624.119 1037.819, 1651.398 1023.616, 1670.390 1002.251 C 1693.203 976.586, 1705.918 943.495, 1713.940 888.911 C 1715.781 876.381, 1719 847.087, 1719 842.860 C 1719 841.379, 1719.764 840.998, 1722.750 840.990 C 1726.979 840.979, 1735.625 837.269, 1738.212 834.355 C 1742.779 829.210, 1744.331 818.471, 1741.608 810.849 C 1740.305 807.202, 1740.308 807.195, 1743.981 805.131 C 1758.215 797.131, 1769.734 781.789, 1775.989 762.500 C 1777.237 758.650, 1778.850 754.818, 1779.572 753.984 C 1782.797 750.264, 1787.299 738.385, 1788.761 729.739 C 1792.180 709.530, 1785.862 692.864, 1772.360 686.477 C 1767.989 684.409, 1765.596 683.902, 1761.445 684.164 C 1756.228 684.494, 1756.097 684.434, 1754.491 681 C 1749.382 670.079, 1742.877 665.081, 1732.710 664.265 C 1727.164 663.820, 1722.669 664.478, 1717.937 666.427 C 1716.546 667, 1716.570 666.107, 1718.157 658.285 C 1723.399 632.446, 1724.042 613.533, 1720.042 602.841 C 1716.406 593.124, 1709.729 588.069, 1699.440 587.243 C 1681.222 585.781, 1670.219 598.232, 1665.634 625.500 C 1663.664 637.216, 1659.013 688.777, 1659.002 699.025 C 1659 700.155, 1656.994 700.864, 1651.250 701.766 C 1634.850 704.341, 1621.031 714.650, 1615.919 728.125 C 1613.952 733.310, 1613.512 736.273, 1613.562 744 C 1613.615 752.128, 1614.058 754.591, 1616.630 761.056 C 1620.699 771.285, 1626.007 779.139, 1634.514 787.514 L 1641.638 794.528 1639.332 799.514 C 1638.064 802.256, 1637.030 806.300, 1637.035 808.500 C 1637.054 816.726, 1643.192 824.995, 1652.250 828.996 L 1657 831.094 1656.989 836.797 C 1656.975 844.447, 1654.461 867.481, 1652.492 878 C 1648.283 900.493, 1641.569 920.121, 1633.177 934.471 C 1627.591 944.023, 1614.135 957.954, 1605.742 962.877 C 1593.284 970.183, 1578.972 973.363, 1565.177 971.889 C 1557.316 971.049, 1542.405 965.648, 1541.120 963.176 C 1540.642 962.254, 1539.713 958.350, 1539.057 954.500 C 1538.401 950.650, 1535.851 937.150, 1533.390 924.500 C 1530.930 911.850, 1525.808 885.525, 1522.009 866 C 1518.210 846.475, 1513.710 823.075, 1512.008 814 C 1510.307 804.925, 1505.802 781.525, 1501.997 762 C 1495.578 729.057, 1485.508 677.125, 1470.876 601.500 C 1460.594 548.357, 1449.317 490.507, 1438.907 437.500 C 1416.060 321.162, 1417.777 328.320, 1409.867 316.493 C 1403.409 306.837, 1396.314 300.571, 1386.500 295.854 C 1375.730 290.678, 1369.246 289.593, 1354.500 290.502 C 1339.159 291.447, 1337.810 291.470, 1336 290.811 C 1335.175 290.510, 1326.175 290.855, 1316 291.577 M 1320.500 306.708 C 1317.750 306.900, 1294.584 308.407, 1269.020 310.058 C 1243.456 311.709, 1222.255 313.384, 1221.907 313.780 C 1219.002 317.081, 1218.025 332.013, 1220.231 339.377 C 1222.042 345.422, 1223.016 346.312, 1291.431 404.457 C 1310.731 420.859, 1385.119 484.681, 1398 495.888 C 1410.353 506.635, 1413.264 507.824, 1422.914 506.062 C 1426.441 505.417, 1430.777 504.284, 1432.549 503.544 L 1435.770 502.198 1433.936 492.849 C 1405.742 349.152, 1402.983 335.853, 1400.156 330.023 C 1396.809 323.120, 1387.035 313.135, 1380.500 309.943 C 1375.728 307.611, 1374.626 307.500, 1356.338 307.500 C 1345.799 307.500, 1336.836 307.163, 1336.421 306.750 C 1335.685 306.018, 1330.612 306.005, 1320.500 306.708 M 1196 315.092 C 1191.325 315.542, 1173.775 316.844, 1157 317.984 C 1140.225 319.124, 1117.500 320.710, 1106.500 321.508 C 1095.500 322.307, 1076.825 323.656, 1065 324.507 C 1053.175 325.357, 1021.900 327.627, 995.500 329.552 C 910.492 335.747, 838.738 340.918, 829.500 341.513 C 824.550 341.832, 818.622 342.319, 816.327 342.596 L 812.154 343.100 815.327 348.588 L 818.500 354.076 830.500 353.471 C 860.067 351.982, 903.466 348.773, 917.815 347.014 C 947.715 343.351, 948.079 343.332, 1061 339.495 C 1069.525 339.206, 1092.025 338.516, 1111 337.963 C 1145.025 336.972, 1175.036 335.550, 1186.234 334.397 C 1190.481 333.960, 1192.914 333.055, 1195.621 330.904 C 1197.631 329.307, 1200.318 328, 1201.592 328 C 1203.436 328, 1204.013 327.336, 1204.417 324.750 C 1205.316 318.989, 1205.613 313.996, 1205.049 314.136 C 1204.747 314.211, 1200.675 314.641, 1196 315.092 M 762.500 346.553 C 747.100 347.802, 722.575 349.768, 708 350.922 C 693.425 352.076, 670.475 353.905, 657 354.987 C 643.525 356.069, 626.875 357.382, 620 357.905 C 609.956 358.668, 605.458 359.552, 597.109 362.402 C 591.394 364.353, 586.492 366.174, 586.216 366.450 C 585.553 367.114, 587.094 374.037, 592.329 393.914 C 595.931 407.591, 597.007 410.458, 598.781 411.115 C 599.951 411.548, 601.807 413.661, 602.903 415.810 C 607.660 425.134, 618.047 465.976, 633.472 536 C 635.471 545.075, 637.320 553.232, 637.581 554.126 C 638.695 557.939, 658.276 560.597, 662.655 557.529 C 663.810 556.720, 678.617 538.608, 695.559 517.279 C 712.500 495.951, 728.455 476.025, 731.014 473 C 733.573 469.975, 752.219 446.814, 772.450 421.531 L 809.235 375.562 808.703 370.531 C 807.995 363.823, 804.989 357.133, 799.448 349.933 C 796.161 345.660, 794.270 344.039, 792.692 344.141 C 791.486 344.218, 777.900 345.303, 762.500 346.553 M 804 405.500 C 804 405.775, 804.225 406, 804.500 406 C 804.775 406, 805 405.775, 805 405.500 C 805 405.225, 804.775 405, 804.500 405 C 804.225 405, 804 405.225, 804 405.500 M 895 515.500 C 895 515.775, 895.225 516, 895.500 516 C 895.775 516, 896 515.775, 896 515.500 C 896 515.225, 895.775 515, 895.500 515 C 895.225 515, 895 515.225, 895 515.500 M 1431.632 519.576 C 1428.954 520.306, 1426.503 521.164, 1426.184 521.483 C 1425.865 521.802, 1426.222 525.311, 1426.979 529.281 C 1427.735 533.252, 1428.424 538.578, 1428.510 541.117 C 1428.596 543.657, 1429.168 547.707, 1429.781 550.117 C 1431.702 557.663, 1435.779 577.519, 1440.948 604.500 C 1447.400 638.174, 1462.768 714.509, 1468.631 742 C 1471.153 753.825, 1475.170 773.625, 1477.558 786 C 1479.946 798.375, 1485.275 825.150, 1489.400 845.500 C 1493.525 865.850, 1500.049 898.025, 1503.898 917 C 1507.746 935.975, 1513.199 963.650, 1516.015 978.500 C 1518.831 993.350, 1523.526 1017.650, 1526.449 1032.500 C 1529.371 1047.350, 1532.051 1061.132, 1532.403 1063.126 C 1532.995 1066.473, 1533.369 1066.803, 1537.272 1067.424 C 1539.597 1067.793, 1542.494 1068.343, 1543.708 1068.646 C 1545.786 1069.163, 1545.859 1068.998, 1544.948 1065.848 C 1544.415 1064.007, 1541.046 1047.200, 1537.463 1028.500 C 1533.879 1009.800, 1530.522 992.475, 1530.004 990 C 1529.486 987.525, 1526.106 969.975, 1522.493 951 C 1518.879 932.025, 1514.837 911.100, 1513.511 904.500 C 1512.184 897.900, 1507.217 872.250, 1502.474 847.500 C 1497.730 822.750, 1490.303 784.275, 1485.968 762 C 1481.634 739.725, 1474.497 703.050, 1470.110 680.500 C 1465.722 657.950, 1458.946 622.850, 1455.052 602.500 C 1441.654 532.486, 1438.653 517.999, 1437.570 518.124 C 1436.982 518.192, 1434.309 518.846, 1431.632 519.576 M 608.496 530.550 C 604.094 531.290, 595.769 533.528, 589.996 535.522 C 576.053 540.338, 551 550.966, 551 552.064 C 551 552.544, 550.251 552.650, 549.336 552.299 C 548.128 551.835, 547.896 552.023, 548.490 552.985 C 549.007 553.820, 548.920 554.069, 548.256 553.658 C 546.543 552.599, 539.284 556.314, 539.747 558.013 C 540.094 559.285, 540.008 559.293, 539.155 558.068 C 538.335 556.892, 533.896 558.788, 514.306 568.681 C 501.188 575.305, 487.182 582.763, 483.181 585.252 C 472.199 592.086, 462.084 600.254, 462.039 602.323 C 462.002 604.043, 467.674 633.974, 468.579 636.833 C 468.896 637.836, 469.682 637.634, 471.750 636.020 C 478.105 631.060, 501.245 616.261, 512.437 610 C 519.072 606.288, 535.075 597.966, 548 591.505 C 560.925 585.045, 571.725 579.476, 572 579.129 C 572.275 578.783, 573.175 578.366, 574 578.201 C 574.825 578.037, 580.225 575.941, 586 573.544 C 598.484 568.362, 614.535 563.163, 620.625 562.328 C 623.031 561.998, 625 561.639, 625 561.531 C 625 561.422, 623.425 554.303, 621.500 545.710 C 619.575 537.117, 618 529.842, 618 529.543 C 618 528.909, 618.671 528.838, 608.496 530.550 M 588 537.500 C 588 537.775, 588.225 538, 588.500 538 C 588.775 538, 589 537.775, 589 537.500 C 589 537.225, 588.775 537, 588.500 537 C 588.225 537, 588 537.225, 588 537.500 M 589.500 539 C 589.160 539.550, 589.359 540, 589.941 540 C 590.523 540, 591 539.550, 591 539 C 591 538.450, 590.802 538, 590.559 538 C 590.316 538, 589.840 538.450, 589.500 539 M 591 542.500 C 591 542.775, 591.225 543, 591.500 543 C 591.775 543, 592 542.775, 592 542.500 C 592 542.225, 591.775 542, 591.500 542 C 591.225 542, 591 542.225, 591 542.500 M 557.500 551 C 557.840 551.550, 558.343 552, 558.618 552 C 558.893 552, 558.840 551.550, 558.500 551 C 558.160 550.450, 557.657 550, 557.382 550 C 557.107 550, 557.160 550.450, 557.500 551 M 593 550.500 C 593 550.775, 593.225 551, 593.500 551 C 593.775 551, 594 550.775, 594 550.500 C 594 550.225, 593.775 550, 593.500 550 C 593.225 550, 593 550.225, 593 550.500 M 562 551.500 C 562 551.775, 562.225 552, 562.500 552 C 562.775 552, 563 551.775, 563 551.500 C 563 551.225, 562.775 551, 562.500 551 C 562.225 551, 562 551.225, 562 551.500 M 551 554.500 C 551 554.775, 551.225 555, 551.500 555 C 551.775 555, 552 554.775, 552 554.500 C 552 554.225, 551.775 554, 551.500 554 C 551.225 554, 551 554.225, 551 554.500 M 545 558.500 C 545 558.775, 545.225 559, 545.500 559 C 545.775 559, 546 558.775, 546 558.500 C 546 558.225, 545.775 558, 545.500 558 C 545.225 558, 545 558.225, 545 558.500 M 576 570.500 C 576 570.775, 576.225 571, 576.500 571 C 576.775 571, 577 570.775, 577 570.500 C 577 570.225, 576.775 570, 576.500 570 C 576.225 570, 576 570.225, 576 570.500 M 642 573.464 C 642 574.388, 643.159 580.174, 644.575 586.322 C 646.856 596.220, 654.140 629.574, 663.178 671.500 C 665.186 680.816, 666.290 689.013, 666.477 696 C 666.699 704.275, 667.953 712.009, 672.396 732.500 C 675.496 746.800, 678.983 761.360, 680.144 764.855 C 681.305 768.350, 682.615 775.775, 683.055 781.355 C 683.495 786.935, 684.355 793.075, 684.966 795 C 686.163 798.769, 697.421 851.190, 701.610 872.500 C 703.016 879.650, 704.996 887.079, 706.011 889.008 C 710.974 898.444, 720.614 943.356, 725.542 980 C 728.391 1001.190, 732.591 1019.961, 736.312 1028.140 C 740.364 1037.047, 743.547 1050.101, 759.566 1123.500 C 775.409 1196.088, 780.207 1221.010, 780.631 1232.906 C 780.866 1239.502, 781.848 1247.515, 782.959 1251.906 C 784.015 1256.083, 786.315 1266.025, 788.069 1274 C 789.823 1281.975, 792.104 1290.178, 793.138 1292.229 C 795.976 1297.854, 798.095 1308.334, 797.910 1315.819 C 797.744 1322.542, 798.345 1326.009, 802.149 1340.250 L 804.219 1348 808.551 1348 C 810.933 1348, 813.138 1347.586, 813.451 1347.080 C 813.763 1346.574, 813.154 1342.411, 812.096 1337.830 C 808.867 1323.842, 806.436 1311.506, 796.513 1258.751 C 791.263 1230.839, 785.650 1202.264, 784.039 1195.251 C 781.455 1183.997, 772.744 1140.543, 758.429 1067.500 C 755.950 1054.850, 750.527 1028.075, 746.377 1008 C 737.646 965.768, 724.234 899.738, 713.471 846 C 705.129 804.351, 688.830 725.208, 683.507 700.500 C 678.181 675.780, 667.153 625.465, 664.987 616 C 660.170 594.958, 655.858 576.794, 655.389 575.571 C 655.107 574.836, 652.992 573.936, 650.688 573.570 C 648.385 573.204, 645.487 572.652, 644.250 572.344 C 642.587 571.929, 642 572.222, 642 573.464 M 576 574.500 C 576 574.775, 576.225 575, 576.500 575 C 576.775 575, 577 574.775, 577 574.500 C 577 574.225, 576.775 574, 576.500 574 C 576.225 574, 576 574.225, 576 574.500 M 575.333 576.667 C 575.700 577.033, 576.300 577.033, 576.667 576.667 C 577.033 576.300, 576.733 576, 576 576 C 575.267 576, 574.967 576.300, 575.333 576.667 M 564 578.500 C 564 578.775, 564.225 579, 564.500 579 C 564.775 579, 565 578.775, 565 578.500 C 565 578.225, 564.775 578, 564.500 578 C 564.225 578, 564 578.225, 564 578.500 M 569 578.500 C 569 578.775, 569.225 579, 569.500 579 C 569.775 579, 570 578.775, 570 578.500 C 570 578.225, 569.775 578, 569.500 578 C 569.225 578, 569 578.225, 569 578.500 M 481.500 589 C 481.840 589.550, 482.343 590, 482.618 590 C 482.893 590, 482.840 589.550, 482.500 589 C 482.160 588.450, 481.657 588, 481.382 588 C 481.107 588, 481.160 588.450, 481.500 589 M 484.500 590 C 484.840 590.550, 485.343 591, 485.618 591 C 485.893 591, 485.840 590.550, 485.500 590 C 485.160 589.450, 484.657 589, 484.382 589 C 484.107 589, 484.160 589.450, 484.500 590 M 487 589.500 C 487 589.775, 487.225 590, 487.500 590 C 487.775 590, 488 589.775, 488 589.500 C 488 589.225, 487.775 589, 487.500 589 C 487.225 589, 487 589.225, 487 589.500 M 477.405 591.155 C 476.962 591.870, 477.130 592.038, 477.845 591.595 C 478.998 590.883, 479.393 590, 478.559 590 C 478.316 590, 477.797 590.520, 477.405 591.155 M 513 601.500 C 513 601.775, 513.225 602, 513.500 602 C 513.775 602, 514 601.775, 514 601.500 C 514 601.225, 513.775 601, 513.500 601 C 513.225 601, 513 601.225, 513 601.500 M 1224.265 604.542 C 1209.913 608.407, 1198.882 618.096, 1191.613 633.222 C 1185.003 646.977, 1183.492 654.989, 1183.542 676 C 1183.582 692.393, 1183.788 694.284, 1186.799 705.896 C 1192.463 727.742, 1201.223 745.562, 1213.534 760.283 L 1219.206 767.066 1222.353 764.954 C 1226.740 762.011, 1240.679 755.428, 1245.578 753.987 L 1249.656 752.786 1244.488 747.619 C 1232.560 735.690, 1224 707.699, 1224 680.621 C 1224 670.379, 1224.408 670.158, 1230.897 676.893 C 1237.385 683.627, 1242.112 685.585, 1248.034 683.991 C 1254.967 682.124, 1259 675.033, 1259 664.710 C 1259 650.260, 1252.164 640.898, 1239.183 637.570 L 1234.866 636.463 1238.452 631.766 C 1244.515 623.826, 1254.824 618, 1262.813 618 L 1266.374 618 1263.437 614.932 C 1259.652 610.979, 1248.012 605.278, 1241.114 603.999 C 1234.136 602.705, 1230.670 602.817, 1224.265 604.542 M 500 609.941 C 500 610.459, 500.445 611.157, 500.989 611.493 C 501.555 611.843, 501.723 611.442, 501.382 610.552 C 500.717 608.820, 500 608.503, 500 609.941 M 502 613.500 C 502 613.775, 502.225 614, 502.500 614 C 502.775 614, 503 613.775, 503 613.500 C 503 613.225, 502.775 613, 502.500 613 C 502.225 613, 502 613.225, 502 613.500 M 960.698 614.096 C 948.284 617.017, 934.552 628.461, 927.762 641.545 C 915.430 665.310, 915.509 702.389, 927.960 733.585 C 931.202 741.707, 936.572 752.208, 941.358 759.780 L 944.063 764.060 949.282 763.280 C 955.742 762.314, 979.161 762.255, 984.276 763.191 L 988.053 763.883 983.471 758.691 C 972.487 746.243, 965.014 721.583, 965.004 697.750 C 965.002 692.388, 965.266 688, 965.591 688 C 965.916 688, 968.030 689.582, 970.288 691.514 C 979.488 699.390, 990.294 697.831, 996.038 687.799 C 998.124 684.157, 998.500 682.201, 998.500 675 C 998.500 667.784, 998.091 665.667, 995.793 660.988 C 992.399 654.078, 987.672 649.441, 981.717 647.181 L 977.097 645.427 981.132 640.707 C 987.313 633.476, 993.030 630.556, 1001.067 630.525 L 1007.690 630.500 1003.189 626.500 C 996.114 620.214, 991.007 617.125, 984.145 614.983 C 977.424 612.886, 967.444 612.508, 960.698 614.096 M 919 624.500 C 919 624.775, 919.225 625, 919.500 625 C 919.775 625, 920 624.775, 920 624.500 C 920 624.225, 919.775 624, 919.500 624 C 919.225 624, 919 624.225, 919 624.500 M 1794.051 650.949 C 1792.923 652.077, 1792 653.388, 1792 653.862 C 1792 654.337, 1794.482 658.049, 1797.516 662.112 C 1804.493 671.458, 1808.147 679.005, 1811.503 691 C 1815.017 703.561, 1817.546 706.369, 1821.455 702.050 C 1825.358 697.737, 1822.406 679.977, 1815.794 668 C 1808.018 653.912, 1798.529 646.471, 1794.051 650.949 M 1830.223 653.557 C 1827.287 655.613, 1827.419 657.899, 1830.871 664.779 C 1832.450 667.925, 1834.519 673.194, 1835.468 676.487 C 1838.029 685.371, 1839.635 688, 1842.503 688 C 1844.019 688, 1845.584 687.039, 1846.604 685.482 C 1850.154 680.064, 1845.628 662.451, 1838.964 655.750 C 1834.838 651.600, 1833.496 651.264, 1830.223 653.557 M 1274.314 695.950 C 1270.316 698.388, 1269 700.817, 1269 705.760 C 1269 716.718, 1284.707 718.629, 1289.391 708.242 C 1290.943 704.801, 1291.038 703.646, 1290.026 700.578 C 1287.971 694.352, 1280.530 692.160, 1274.314 695.950 M 1015.500 706.718 C 1012.177 707.525, 1007.371 711.690, 1006.032 714.922 C 1003.147 721.889, 1008.363 730.161, 1015.764 730.355 C 1020.376 730.476, 1024.335 728.139, 1027.044 723.696 C 1030.737 717.638, 1028.582 709.977, 1022.466 707.421 C 1018.923 705.941, 1018.764 705.925, 1015.500 706.718 M 1304 745.500 C 1304 745.775, 1304.225 746, 1304.500 746 C 1304.775 746, 1305 745.775, 1305 745.500 C 1305 745.225, 1304.775 745, 1304.500 745 C 1304.225 745, 1304 745.225, 1304 745.500 M 1202 771.500 C 1202 771.775, 1202.225 772, 1202.500 772 C 1202.775 772, 1203 771.775, 1203 771.500 C 1203 771.225, 1202.775 771, 1202.500 771 C 1202.225 771, 1202 771.225, 1202 771.500 M 1203.405 774.155 C 1202.962 774.870, 1203.130 775.038, 1203.845 774.595 C 1204.480 774.203, 1205 773.684, 1205 773.441 C 1205 772.607, 1204.117 773.002, 1203.405 774.155 M 1008 786.500 C 1008 786.775, 1008.225 787, 1008.500 787 C 1008.775 787, 1009 786.775, 1009 786.500 C 1009 786.225, 1008.775 786, 1008.500 786 C 1008.225 786, 1008 786.225, 1008 786.500 M 1039.115 834.501 C 1033.457 836.266, 1028 841.479, 1028 845.119 C 1028 848.670, 1032.959 853.634, 1039.494 856.625 C 1057.801 865.003, 1099.451 870.132, 1132.247 868.047 C 1155.636 866.561, 1164.151 864.943, 1168.389 861.180 C 1173.198 856.912, 1175.785 843.824, 1172.664 839.555 C 1171.373 837.790, 1170.977 837.799, 1160.914 839.818 C 1130.234 845.973, 1102.164 844.961, 1068.510 836.485 C 1053.680 832.750, 1046.324 832.253, 1039.115 834.501 M 1069 928.500 C 1069 928.775, 1069.225 929, 1069.500 929 C 1069.775 929, 1070 928.775, 1070 928.500 C 1070 928.225, 1069.775 928, 1069.500 928 C 1069.225 928, 1069 928.225, 1069 928.500 M 1737.831 938.035 C 1736.897 938.580, 1734.533 943.959, 1732.460 950.254 C 1725.078 972.677, 1714.433 992.096, 1700.430 1008.686 C 1692.700 1017.844, 1691.527 1019.980, 1692.375 1023.360 C 1694.709 1032.658, 1710.330 1020.472, 1722.959 999.500 C 1733.547 981.918, 1743.256 958.181, 1744.626 946.527 C 1745.558 938.594, 1742.793 935.139, 1737.831 938.035 M 1141 967.500 C 1141 967.775, 1141.225 968, 1141.500 968 C 1141.775 968, 1142 967.775, 1142 967.500 C 1142 967.225, 1141.775 967, 1141.500 967 C 1141.225 967, 1141 967.225, 1141 967.500 M 404.715 1027.491 C 396.112 1034.061, 383.234 1051.545, 375.247 1067.500 C 366.635 1084.704, 361.647 1106.504, 365.451 1110.308 C 369.645 1114.502, 372.548 1110.859, 377.964 1094.609 C 380.216 1087.851, 383.653 1078.987, 385.602 1074.911 C 390.340 1065.002, 400.890 1049.280, 407.904 1041.676 C 414.521 1034.502, 418 1030.088, 418 1028.865 C 418 1027.115, 413.930 1024, 411.644 1024 C 410.348 1024, 407.230 1025.571, 404.715 1027.491 M 355.319 1037.071 C 349.594 1040.738, 343.070 1053.083, 340.951 1064.259 C 339.826 1070.193, 340.545 1073.686, 343.182 1075.097 C 346.262 1076.746, 349.543 1073.893, 351.564 1067.808 C 354.572 1058.750, 357.636 1052.625, 361.427 1048.087 C 366.936 1041.493, 367.408 1040.272, 365.548 1037.433 C 363.562 1034.402, 359.699 1034.266, 355.319 1037.071 M 1520.252 1084.165 C 1518.465 1085.449, 1513.786 1091, 1509.854 1096.500 C 1448.053 1182.938, 1435.031 1201.047, 1407.842 1238.360 C 1401.887 1246.533, 1396.495 1254.952, 1395.861 1257.069 C 1394.367 1262.057, 1395.939 1270.435, 1399.791 1278 L 1402.590 1283.500 1408.545 1283.415 C 1414.334 1283.333, 1425.252 1282.232, 1502.373 1273.957 C 1522.653 1271.781, 1541.067 1270, 1543.294 1270 C 1545.521 1270, 1548.053 1269.383, 1548.921 1268.628 C 1549.790 1267.874, 1552.975 1266.462, 1556 1265.490 C 1568.976 1261.322, 1574.252 1257.218, 1575.915 1250 C 1577.960 1241.121, 1577.128 1232.417, 1571.532 1204.135 C 1566.951 1180.978, 1556.366 1125.737, 1550.279 1093.212 C 1549.093 1086.876, 1548.248 1084.668, 1546.690 1083.834 C 1545.569 1083.234, 1539.892 1082.538, 1534.076 1082.287 C 1524.204 1081.860, 1523.284 1081.985, 1520.252 1084.165 M 748.500 1185.464 C 713.549 1195.469, 667.112 1214.244, 668.483 1217.817 C 668.937 1219, 668.764 1219.049, 667.587 1218.072 C 666.398 1217.086, 662.540 1218.701, 646.814 1226.766 C 615.167 1242.996, 596.599 1254.929, 597.436 1258.500 C 597.693 1259.600, 599.061 1266.773, 600.475 1274.439 C 601.889 1282.106, 603.200 1288.533, 603.389 1288.722 C 603.578 1288.911, 605.705 1287.401, 608.116 1285.366 C 623.851 1272.089, 668.089 1247.002, 695.197 1235.985 C 701.080 1233.594, 705.623 1231.199, 705.292 1230.664 C 704.957 1230.122, 705.208 1230.011, 705.859 1230.413 C 706.502 1230.810, 710.734 1229.699, 715.264 1227.943 C 730.631 1221.988, 746.469 1216.833, 755.474 1214.856 C 760.410 1213.772, 764.577 1212.757, 764.733 1212.600 C 764.966 1212.367, 759.680 1188.618, 758.423 1184.250 C 757.979 1182.710, 758.230 1182.679, 748.500 1185.464 M 737.500 1191 C 737.840 1191.550, 738.316 1192, 738.559 1192 C 738.802 1192, 739 1191.550, 739 1191 C 739 1190.450, 738.523 1190, 737.941 1190 C 737.359 1190, 737.160 1190.450, 737.500 1191 M 694 1206.500 C 694 1206.775, 694.225 1207, 694.500 1207 C 694.775 1207, 695 1206.775, 695 1206.500 C 695 1206.225, 694.775 1206, 694.500 1206 C 694.225 1206, 694 1206.225, 694 1206.500 M 697 1207.500 C 697 1207.775, 697.225 1208, 697.500 1208 C 697.775 1208, 698 1207.775, 698 1207.500 C 698 1207.225, 697.775 1207, 697.500 1207 C 697.225 1207, 697 1207.225, 697 1207.500 M 680 1212.500 C 680 1212.775, 680.225 1213, 680.500 1213 C 680.775 1213, 681 1212.775, 681 1212.500 C 681 1212.225, 680.775 1212, 680.500 1212 C 680.225 1212, 680 1212.225, 680 1212.500 M 682 1213.500 C 682 1213.775, 682.225 1214, 682.500 1214 C 682.775 1214, 683 1213.775, 683 1213.500 C 683 1213.225, 682.775 1213, 682.500 1213 C 682.225 1213, 682 1213.225, 682 1213.500 M 670.405 1217.155 C 669.962 1217.870, 670.130 1218.038, 670.845 1217.595 C 671.480 1217.203, 672 1216.684, 672 1216.441 C 672 1215.607, 671.117 1216.002, 670.405 1217.155 M 664.507 1220.989 C 664.157 1221.555, 664.558 1221.723, 665.448 1221.382 C 667.180 1220.717, 667.497 1220, 666.059 1220 C 665.541 1220, 664.843 1220.445, 664.507 1220.989 M 659 1221.255 C 659 1221.530, 659.635 1222.282, 660.411 1222.926 C 661.498 1223.828, 661.994 1223.799, 662.571 1222.799 C 662.983 1222.084, 662.952 1221.834, 662.502 1222.241 C 662.052 1222.649, 661.080 1222.481, 660.342 1221.869 C 659.604 1221.256, 659 1220.980, 659 1221.255 M 666 1222.393 C 666 1222.609, 666.698 1223.054, 667.552 1223.382 C 668.442 1223.723, 668.843 1223.555, 668.493 1222.989 C 667.906 1222.038, 666 1221.583, 666 1222.393 M 704 1224.500 C 704 1224.775, 704.225 1225, 704.500 1225 C 704.775 1225, 705 1224.775, 705 1224.500 C 705 1224.225, 704.775 1224, 704.500 1224 C 704.225 1224, 704 1224.225, 704 1224.500 M 654 1225.500 C 654 1225.775, 654.225 1226, 654.500 1226 C 654.775 1226, 655 1225.775, 655 1225.500 C 655 1225.225, 654.775 1225, 654.500 1225 C 654.225 1225, 654 1225.225, 654 1225.500 M 766 1225.500 C 766 1225.775, 766.225 1226, 766.500 1226 C 766.775 1226, 767 1225.775, 767 1225.500 C 767 1225.225, 766.775 1225, 766.500 1225 C 766.225 1225, 766 1225.225, 766 1225.500 M 767 1228 C 767 1228.733, 767.300 1229.033, 767.667 1228.667 C 768.033 1228.300, 768.033 1227.700, 767.667 1227.333 C 767.300 1226.967, 767 1227.267, 767 1228 M 692 1233.500 C 692 1233.775, 692.225 1234, 692.500 1234 C 692.775 1234, 693 1233.775, 693 1233.500 C 693 1233.225, 692.775 1233, 692.500 1233 C 692.225 1233, 692 1233.225, 692 1233.500 M 606 1252.500 C 606 1252.775, 606.225 1253, 606.500 1253 C 606.775 1253, 607 1252.775, 607 1252.500 C 607 1252.225, 606.775 1252, 606.500 1252 C 606.225 1252, 606 1252.225, 606 1252.500 M 623 1272.500 C 623 1272.775, 623.225 1273, 623.500 1273 C 623.775 1273, 624 1272.775, 624 1272.500 C 624 1272.225, 623.775 1272, 623.500 1272 C 623.225 1272, 623 1272.225, 623 1272.500 M 1367 1286.500 C 1367 1286.775, 1367.225 1287, 1367.500 1287 C 1367.775 1287, 1368 1286.775, 1368 1286.500 C 1368 1286.225, 1367.775 1286, 1367.500 1286 C 1367.225 1286, 1367 1286.225, 1367 1286.500 M 1518.500 1287.591 C 1512.450 1288.331, 1499.175 1289.830, 1489 1290.921 C 1478.825 1292.012, 1450.025 1295.145, 1425 1297.883 C 1399.975 1300.621, 1363.750 1304.506, 1344.500 1306.515 C 1325.250 1308.525, 1286.775 1312.623, 1259 1315.623 C 1231.225 1318.622, 1197.475 1322.187, 1184 1323.545 C 1154.386 1326.529, 1135.498 1328.568, 1119.500 1330.507 C 1112.900 1331.308, 1094.225 1333.327, 1078 1334.994 C 1048.012 1338.075, 1024.682 1340.559, 974.500 1346.012 C 959.100 1347.686, 937.950 1349.925, 927.500 1350.989 C 904.589 1353.320, 893.937 1354.464, 834.548 1360.968 C 809.275 1363.735, 786.910 1366, 784.847 1366 C 781.258 1366, 780.936 1366.289, 777.317 1372.750 C 770.762 1384.451, 763.459 1404.793, 765.191 1406.525 C 765.473 1406.806, 772.183 1405.912, 780.102 1404.537 C 795.228 1401.911, 812.837 1399.395, 839.500 1396.051 C 884.387 1390.422, 914 1388.819, 914 1392.018 C 914 1392.934, 901.036 1396.515, 890.264 1398.576 C 885.997 1399.393, 864.054 1402.531, 841.503 1405.550 C 785.658 1413.025, 764.730 1415.950, 763.250 1416.485 C 762.409 1416.789, 762 1419.276, 762 1424.094 L 762 1431.250 765.250 1430.567 C 788.188 1425.747, 816 1424.357, 816 1428.032 C 816 1430.672, 799.066 1435.153, 777.750 1438.152 C 759.876 1440.668, 761.060 1439.652, 763.359 1450.500 C 764.411 1455.468, 764.963 1456.465, 766.565 1456.294 C 767.629 1456.181, 775.925 1455.174, 785 1454.056 C 794.075 1452.938, 821.975 1449.757, 847 1446.986 C 956.585 1434.851, 956.919 1434.805, 962.395 1431.246 C 970.485 1425.988, 976.165 1424.510, 988 1424.584 C 996.287 1424.636, 999.648 1425.104, 1003.946 1426.803 C 1008.755 1428.705, 1010.160 1428.842, 1015.946 1427.971 C 1021.409 1427.148, 1130.159 1414.826, 1191.349 1408.096 C 1205.250 1406.567, 1208.662 1405.872, 1210.849 1404.124 C 1215.530 1400.383, 1222.802 1397.018, 1229.741 1395.381 C 1238.005 1393.432, 1249.504 1394.005, 1265.623 1397.167 L 1276.745 1399.350 1364.623 1389.592 C 1412.955 1384.226, 1464.635 1378.406, 1479.467 1376.659 L 1506.434 1373.482 1507.693 1362.184 C 1508.386 1355.970, 1510.100 1346.348, 1511.502 1340.801 C 1512.904 1335.255, 1513.878 1330.544, 1513.666 1330.332 C 1513.454 1330.120, 1500.955 1331.526, 1485.890 1333.456 C 1445.059 1338.687, 1403.888 1343.237, 1376.769 1345.517 C 1368.408 1346.220, 1362.679 1345.464, 1363.256 1343.733 C 1364.664 1339.508, 1430.589 1328.637, 1489 1322.999 C 1501.375 1321.805, 1512.906 1320.631, 1514.624 1320.392 C 1517.435 1320, 1518.078 1319.201, 1521.024 1312.444 C 1522.826 1308.312, 1526.897 1300.672, 1530.071 1295.466 L 1535.842 1286 1532.671 1286.122 C 1530.927 1286.189, 1524.550 1286.850, 1518.500 1287.591 M 1340 1290.500 C 1340 1290.775, 1340.225 1291, 1340.500 1291 C 1340.775 1291, 1341 1290.775, 1341 1290.500 C 1341 1290.225, 1340.775 1290, 1340.500 1290 C 1340.225 1290, 1340 1290.225, 1340 1290.500 M 888 1338.500 C 888 1338.775, 888.225 1339, 888.500 1339 C 888.775 1339, 889 1338.775, 889 1338.500 C 889 1338.225, 888.775 1338, 888.500 1338 C 888.225 1338, 888 1338.225, 888 1338.500 M 1056.500 1352.683 C 1028.892 1353.517, 995.692 1359.101, 998.965 1362.360 C 1003.133 1366.511, 1072.137 1357.266, 1069.449 1352.917 C 1069.137 1352.413, 1068.121 1352.093, 1067.191 1352.206 C 1066.261 1352.319, 1061.450 1352.534, 1056.500 1352.683 M 1381 1357.658 C 1379.075 1357.844, 1370.075 1358.700, 1361 1359.559 C 1298.020 1365.524, 1243.832 1372.225, 1240.400 1374.474 C 1237.444 1376.411, 1237.371 1377.593, 1240.116 1379.062 C 1242.551 1380.365, 1248.388 1380.034, 1286 1376.458 C 1300.025 1375.124, 1323.650 1372.890, 1338.500 1371.494 C 1377.021 1367.871, 1390.491 1366.145, 1398.793 1363.770 C 1404.265 1362.204, 1406.009 1361.288, 1405.781 1360.099 C 1405.613 1359.228, 1404.131 1358.228, 1402.488 1357.876 C 1399.355 1357.206, 1386.981 1357.080, 1381 1357.658 M 759 1369.695 C 747.242 1371.684, 726.049 1376.443, 720.421 1378.357 C 704.743 1383.691, 695.456 1391.047, 690.053 1402.413 C 684.112 1414.911, 683.792 1427.262, 689.133 1437.950 C 694.400 1448.490, 702.942 1454.141, 718.095 1457.111 C 724.731 1458.412, 751.344 1458.990, 752.476 1457.857 C 752.829 1457.504, 752.304 1454.579, 751.309 1451.357 C 749.860 1446.667, 749.504 1442.114, 749.518 1428.500 C 749.534 1413.499, 749.856 1410.151, 752.262 1400.033 C 754.041 1392.551, 756.650 1385.167, 759.770 1378.783 C 764.726 1368.642, 764.733 1368.725, 759 1369.695 M 1109.500 1380.006 C 1012.067 1390.213, 983.699 1393.557, 980.143 1395.256 C 976.402 1397.043, 976.062 1400.726, 979.556 1401.603 C 982.969 1402.460, 996.384 1401.629, 1020.500 1399.067 C 1030.950 1397.957, 1057.500 1395.237, 1079.500 1393.023 C 1101.500 1390.809, 1125.863 1388.098, 1133.639 1386.998 C 1177.426 1380.803, 1157.363 1374.992, 1109.500 1380.006 M 1487 1480.563 C 1481.368 1482.029, 1467.280 1488.682, 1463.252 1491.778 L 1461.004 1493.505 1462.904 1498.504 C 1466.168 1507.097, 1466.497 1512.098, 1464.006 1515.265 C 1459.845 1520.555, 1455.186 1518.482, 1451.647 1509.766 L 1449.319 1504.032 1447.148 1506.342 C 1445.009 1508.619, 1445.001 1508.757, 1446.580 1515.750 C 1448.314 1523.430, 1447.566 1527.033, 1443.741 1529.408 C 1441.277 1530.938, 1436.964 1528.383, 1434.825 1524.126 L 1433.151 1520.793 1427.513 1529.264 C 1424.413 1533.923, 1420.758 1538.245, 1419.391 1538.868 C 1411.800 1542.326, 1407 1537.969, 1407 1527.621 C 1407 1522.387, 1405.405 1519, 1402.939 1519 C 1398.354 1519, 1380.411 1529.238, 1381.607 1531.173 C 1382.036 1531.867, 1381.863 1532.034, 1381.163 1531.601 C 1379.802 1530.760, 1371.814 1536.890, 1372.604 1538.168 C 1372.904 1538.653, 1372.687 1538.926, 1372.123 1538.775 C 1371.111 1538.504, 1360 1548.723, 1360 1549.925 C 1360 1550.266, 1361.666 1551.435, 1363.703 1552.523 C 1369.638 1555.691, 1372.679 1558.702, 1376.617 1565.307 C 1387.982 1584.367, 1389.204 1586.076, 1390.619 1584.902 C 1391.505 1584.166, 1392 1584.127, 1392 1584.794 C 1392 1585.366, 1391.492 1586.003, 1390.872 1586.209 C 1389.788 1586.571, 1399.781 1601.863, 1401.162 1601.956 C 1401.526 1601.980, 1403.991 1598.963, 1406.638 1595.250 C 1415.405 1582.957, 1431.140 1564.956, 1447.427 1548.588 C 1484.489 1511.339, 1507.074 1493.740, 1526.500 1486.971 L 1531.500 1485.229 1526.971 1483.245 C 1524.480 1482.153, 1520.070 1480.752, 1517.172 1480.130 C 1509.979 1478.588, 1493.693 1478.821, 1487 1480.563 M 1468.405 1498.155 C 1467.962 1498.870, 1468.130 1499.038, 1468.845 1498.595 C 1469.480 1498.203, 1470 1497.684, 1470 1497.441 C 1470 1496.607, 1469.117 1497.002, 1468.405 1498.155 M 1466 1499.500 C 1466 1499.775, 1466.225 1500, 1466.500 1500 C 1466.775 1500, 1467 1499.775, 1467 1499.500 C 1467 1499.225, 1466.775 1499, 1466.500 1499 C 1466.225 1499, 1466 1499.225, 1466 1499.500 M 1485.405 1510.155 C 1484.962 1510.870, 1485.130 1511.038, 1485.845 1510.595 C 1486.480 1510.203, 1487 1509.684, 1487 1509.441 C 1487 1508.607, 1486.117 1509.002, 1485.405 1510.155 M 1467 1513.500 C 1467 1513.775, 1467.225 1514, 1467.500 1514 C 1467.775 1514, 1468 1513.775, 1468 1513.500 C 1468 1513.225, 1467.775 1513, 1467.500 1513 C 1467.225 1513, 1467 1513.225, 1467 1513.500 M 1481 1513.500 C 1481 1513.775, 1481.225 1514, 1481.500 1514 C 1481.775 1514, 1482 1513.775, 1482 1513.500 C 1482 1513.225, 1481.775 1513, 1481.500 1513 C 1481.225 1513, 1481 1513.225, 1481 1513.500 M 1464 1517.500 C 1464 1517.775, 1464.225 1518, 1464.500 1518 C 1464.775 1518, 1465 1517.775, 1465 1517.500 C 1465 1517.225, 1464.775 1517, 1464.500 1517 C 1464.225 1517, 1464 1517.225, 1464 1517.500 M 1401.564 1522.707 C 1401.022 1524.132, 1401.136 1524.247, 1402.124 1523.267 C 1402.808 1522.588, 1403.115 1521.781, 1402.807 1521.474 C 1402.499 1521.166, 1401.940 1521.721, 1401.564 1522.707 M 1397 1522.500 C 1397 1522.775, 1397.225 1523, 1397.500 1523 C 1397.775 1523, 1398 1522.775, 1398 1522.500 C 1398 1522.225, 1397.775 1522, 1397.500 1522 C 1397.225 1522, 1397 1522.225, 1397 1522.500 M 1399 1524.500 C 1399 1524.775, 1399.225 1525, 1399.500 1525 C 1399.775 1525, 1400 1524.775, 1400 1524.500 C 1400 1524.225, 1399.775 1524, 1399.500 1524 C 1399.225 1524, 1399 1524.225, 1399 1524.500 M 1389 1526.500 C 1389 1526.775, 1389.225 1527, 1389.500 1527 C 1389.775 1527, 1390 1526.775, 1390 1526.500 C 1390 1526.225, 1389.775 1526, 1389.500 1526 C 1389.225 1526, 1389 1526.225, 1389 1526.500 M 1391 1526.500 C 1391 1526.775, 1391.225 1527, 1391.500 1527 C 1391.775 1527, 1392 1526.775, 1392 1526.500 C 1392 1526.225, 1391.775 1526, 1391.500 1526 C 1391.225 1526, 1391 1526.225, 1391 1526.500 M 1393 1526.500 C 1393 1526.775, 1393.225 1527, 1393.500 1527 C 1393.775 1527, 1394 1526.775, 1394 1526.500 C 1394 1526.225, 1393.775 1526, 1393.500 1526 C 1393.225 1526, 1393 1526.225, 1393 1526.500 M 1401 1526.500 C 1401 1526.775, 1401.225 1527, 1401.500 1527 C 1401.775 1527, 1402 1526.775, 1402 1526.500 C 1402 1526.225, 1401.775 1526, 1401.500 1526 C 1401.225 1526, 1401 1526.225, 1401 1526.500 M 1404 1526.500 C 1404 1526.775, 1404.225 1527, 1404.500 1527 C 1404.775 1527, 1405 1526.775, 1405 1526.500 C 1405 1526.225, 1404.775 1526, 1404.500 1526 C 1404.225 1526, 1404 1526.225, 1404 1526.500 M 1386 1527.500 C 1386 1527.775, 1386.225 1528, 1386.500 1528 C 1386.775 1528, 1387 1527.775, 1387 1527.500 C 1387 1527.225, 1386.775 1527, 1386.500 1527 C 1386.225 1527, 1386 1527.225, 1386 1527.500 M 1383 1529.500 C 1383 1529.775, 1383.225 1530, 1383.500 1530 C 1383.775 1530, 1384 1529.775, 1384 1529.500 C 1384 1529.225, 1383.775 1529, 1383.500 1529 C 1383.225 1529, 1383 1529.225, 1383 1529.500 M 1380.333 1534.667 C 1380.700 1535.033, 1381.300 1535.033, 1381.667 1534.667 C 1382.033 1534.300, 1381.733 1534, 1381 1534 C 1380.267 1534, 1379.967 1534.300, 1380.333 1534.667 M 1375 1538.500 C 1375 1538.775, 1375.225 1539, 1375.500 1539 C 1375.775 1539, 1376 1538.775, 1376 1538.500 C 1376 1538.225, 1375.775 1538, 1375.500 1538 C 1375.225 1538, 1375 1538.225, 1375 1538.500 M 1423 1539.500 C 1423 1539.775, 1423.225 1540, 1423.500 1540 C 1423.775 1540, 1424 1539.775, 1424 1539.500 C 1424 1539.225, 1423.775 1539, 1423.500 1539 C 1423.225 1539, 1423 1539.225, 1423 1539.500 M 1409.543 1540.931 C 1409.226 1541.443, 1409.350 1542.098, 1409.817 1542.387 C 1410.284 1542.676, 1410.667 1542.257, 1410.667 1541.456 C 1410.667 1539.770, 1410.351 1539.623, 1409.543 1540.931 M 1414 1541.500 C 1414 1541.775, 1414.225 1542, 1414.500 1542 C 1414.775 1542, 1415 1541.775, 1415 1541.500 C 1415 1541.225, 1414.775 1541, 1414.500 1541 C 1414.225 1541, 1414 1541.225, 1414 1541.500 M 1419 1541.500 C 1419 1541.775, 1419.225 1542, 1419.500 1542 C 1419.775 1542, 1420 1541.775, 1420 1541.500 C 1420 1541.225, 1419.775 1541, 1419.500 1541 C 1419.225 1541, 1419 1541.225, 1419 1541.500 M 1414 1543.500 C 1414 1543.775, 1414.225 1544, 1414.500 1544 C 1414.775 1544, 1415 1543.775, 1415 1543.500 C 1415 1543.225, 1414.775 1543, 1414.500 1543 C 1414.225 1543, 1414 1543.225, 1414 1543.500 M 1416 1543.500 C 1416 1543.775, 1416.225 1544, 1416.500 1544 C 1416.775 1544, 1417 1543.775, 1417 1543.500 C 1417 1543.225, 1416.775 1543, 1416.500 1543 C 1416.225 1543, 1416 1543.225, 1416 1543.500 M 1418.333 1543.667 C 1418.700 1544.033, 1419.300 1544.033, 1419.667 1543.667 C 1420.033 1543.300, 1419.733 1543, 1419 1543 C 1418.267 1543, 1417.967 1543.300, 1418.333 1543.667 M 1366 1552.500 C 1366 1552.775, 1366.225 1553, 1366.500 1553 C 1366.775 1553, 1367 1552.775, 1367 1552.500 C 1367 1552.225, 1366.775 1552, 1366.500 1552 C 1366.225 1552, 1366 1552.225, 1366 1552.500 M 1433 1553.500 C 1433 1553.775, 1433.225 1554, 1433.500 1554 C 1433.775 1554, 1434 1553.775, 1434 1553.500 C 1434 1553.225, 1433.775 1553, 1433.500 1553 C 1433.225 1553, 1433 1553.225, 1433 1553.500 M 1424 1561 C 1424 1561.733, 1424.300 1562.033, 1424.667 1561.667 C 1425.033 1561.300, 1425.033 1560.700, 1424.667 1560.333 C 1424.300 1559.967, 1424 1560.267, 1424 1561 M 1426 1564.500 C 1426 1564.775, 1426.225 1565, 1426.500 1565 C 1426.775 1565, 1427 1564.775, 1427 1564.500 C 1427 1564.225, 1426.775 1564, 1426.500 1564 C 1426.225 1564, 1426 1564.225, 1426 1564.500 M 932.500 1575 C 932.160 1575.550, 932.696 1576.007, 933.691 1576.015 C 935.225 1576.028, 935.272 1576.178, 934 1577 C 933 1577.646, 932.917 1577.974, 933.750 1577.985 C 934.438 1577.993, 935 1578.661, 935 1579.469 C 935 1580.363, 934.414 1580.712, 933.500 1580.362 C 932.675 1580.045, 932 1580.284, 932 1580.893 C 932 1581.502, 932.402 1582, 932.893 1582 C 933.384 1582, 934.023 1582.619, 934.314 1583.375 C 934.676 1584.318, 934.048 1584.750, 932.314 1584.750 C 930.761 1584.750, 930.258 1584.459, 931.010 1583.994 C 931.915 1583.434, 931.951 1582.753, 931.147 1581.369 C 930.335 1579.972, 930.052 1579.879, 930.025 1581 C 929.945 1584.323, 927.757 1590.243, 925.935 1592.065 C 923.011 1594.989, 918.591 1594.561, 915.822 1591.085 L 913.500 1588.169 903 1600.131 C 897.225 1606.711, 891.269 1613.476, 889.764 1615.166 C 888.260 1616.855, 887.317 1618.704, 887.669 1619.273 C 888.021 1619.843, 887.839 1620.019, 887.265 1619.664 C 886.691 1619.309, 884.461 1620.702, 882.308 1622.759 C 880.156 1624.817, 875.098 1629.585, 871.068 1633.354 L 863.741 1640.209 864.423 1651.854 C 865.395 1668.463, 867.557 1682.034, 871 1693.138 C 874.538 1704.548, 881.449 1720, 883.013 1720 C 883.621 1720, 883.840 1720.450, 883.500 1721 C 883.160 1721.550, 883.367 1722, 883.961 1722 C 884.574 1722, 884.837 1720.888, 884.571 1719.421 C 884.157 1717.136, 884.291 1716.993, 885.744 1718.171 C 886.744 1718.981, 887.107 1719.039, 886.676 1718.319 C 886.286 1717.670, 886.494 1716.813, 887.138 1716.415 C 887.843 1715.979, 888.042 1716.123, 887.638 1716.776 C 887.269 1717.373, 887.432 1718.149, 888 1718.500 C 888.568 1718.851, 888.769 1719.564, 888.447 1720.085 C 888.125 1720.606, 887.443 1720.774, 886.931 1720.457 C 886.419 1720.141, 886 1720.336, 886 1720.891 C 886 1721.446, 886.703 1722.294, 887.563 1722.775 C 888.957 1723.556, 888.937 1723.804, 887.371 1725.075 C 886.259 1725.978, 885.891 1726.042, 886.367 1725.250 C 887.279 1723.733, 886.226 1721.742, 884.935 1722.540 C 884.405 1722.868, 884.667 1724.388, 885.546 1726.089 C 886.393 1727.726, 887.511 1728.802, 888.031 1728.481 C 888.551 1728.159, 888.771 1728.482, 888.520 1729.198 C 888.268 1729.914, 890.272 1733.490, 892.972 1737.145 C 898.909 1745.179, 896.539 1744.691, 934.072 1745.609 C 957.687 1746.186, 999.282 1745.174, 991.500 1744.211 C 989.850 1744.007, 987.600 1743.062, 986.500 1742.111 C 985.400 1741.160, 983.253 1739.851, 981.730 1739.203 C 980.206 1738.555, 978.545 1736.933, 978.037 1735.598 C 977.530 1734.263, 976.254 1732.898, 975.202 1732.564 C 974.150 1732.230, 972.099 1730.284, 970.644 1728.240 C 968.780 1725.620, 968 1725.061, 968 1726.345 C 968 1729.456, 965.550 1727.546, 964.574 1723.674 C 964.064 1721.653, 963.277 1720, 962.824 1720 C 962.371 1720, 962 1718.200, 962 1716 C 962 1713.800, 961.550 1712, 961 1712 C 960.450 1712, 960 1712.450, 960 1713 C 960 1713.550, 959.100 1714, 958 1714 C 956.900 1714, 956 1713.356, 956 1712.570 C 956 1711.783, 954.987 1710.944, 953.750 1710.706 L 951.500 1710.272 953.750 1710.136 C 956.532 1709.968, 956.762 1708, 954 1708 C 952.900 1708, 952 1707.550, 952 1707 C 952 1705.358, 963.065 1705.865, 970.022 1707.826 C 984.789 1711.987, 995.973 1722.613, 1000.568 1736.850 C 1002.032 1741.383, 1002.082 1742.334, 1000.898 1743.084 C 998.573 1744.556, 1002.986 1744.193, 1008.950 1742.422 L 1014.264 1740.844 1013.687 1735.255 C 1012.450 1723.269, 1002.130 1709.019, 990.828 1703.690 C 969.795 1693.772, 946.299 1697.103, 924.222 1713.133 C 916.972 1718.397, 916.308 1719, 917.761 1719 C 918.400 1719, 919.867 1717.987, 921.023 1716.750 C 922.622 1715.038, 922.961 1714.925, 922.444 1716.278 C 922.070 1717.256, 921.030 1718.423, 920.132 1718.872 C 917.651 1720.114, 909.257 1720.224, 908.516 1719.025 C 908.156 1718.443, 907.430 1718.234, 906.903 1718.560 C 905.892 1719.184, 902.079 1715.210, 902.049 1713.500 C 902.039 1712.950, 902.474 1713.175, 903.015 1714 C 903.891 1715.333, 904.122 1715.333, 905.094 1714 C 906.026 1712.723, 906.107 1712.755, 905.638 1714.218 C 905.335 1715.163, 905.588 1716.245, 906.200 1716.623 C 906.979 1717.105, 907.128 1716.179, 906.699 1713.532 C 906.362 1711.453, 906.351 1710.018, 906.676 1710.342 C 907 1710.667, 908.157 1709.799, 909.247 1708.413 C 911.740 1705.244, 910.872 1704.128, 908.083 1706.917 C 905.857 1709.143, 904 1709.636, 904 1708 C 904 1707.450, 904.338 1707.113, 904.750 1707.250 C 905.163 1707.388, 905.500 1707.050, 905.500 1706.500 C 905.500 1705.950, 905.237 1705.588, 904.917 1705.694 C 904.596 1705.801, 904.333 1705.314, 904.333 1704.611 C 904.333 1703.908, 904.933 1703.333, 905.667 1703.333 C 906.400 1703.333, 907 1703.724, 907 1704.201 C 907 1705.445, 911.486 1704.671, 913.378 1703.101 C 914.258 1702.371, 914.688 1701.305, 914.334 1700.732 C 913.981 1700.160, 914.158 1699.979, 914.728 1700.332 C 915.298 1700.684, 916.830 1700.140, 918.132 1699.123 C 919.435 1698.105, 922.708 1696.155, 925.406 1694.789 L 930.313 1692.306 926.325 1691.668 C 919.896 1690.640, 916.839 1685.745, 920.065 1681.645 C 922.426 1678.643, 929.140 1677, 939.049 1677 C 942.961 1677, 946 1676.568, 946 1676.012 C 946 1675.468, 945.212 1675.090, 944.250 1675.170 C 940.148 1675.514, 938.609 1674.714, 942 1674 C 944.372 1673.501, 941.893 1673.221, 934.306 1673.132 C 924.037 1673.011, 922.881 1672.802, 920.326 1670.604 C 917.882 1668.502, 917.661 1667.858, 918.526 1665.354 C 919.143 1663.565, 920.908 1661.816, 923.255 1660.668 C 927.488 1658.597, 928.214 1656.912, 924.591 1657.569 C 922.869 1657.882, 921.501 1657.222, 919.790 1655.253 C 917.498 1652.616, 915.978 1651.792, 913.250 1651.706 C 911.363 1651.647, 911.591 1643.094, 913.500 1642.362 C 915.521 1641.586, 915.396 1640.250, 913.250 1639.689 C 912.288 1639.438, 915.212 1639.180, 919.750 1639.116 L 928 1639 928 1644.500 C 928 1648.670, 927.645 1650, 926.531 1650 C 923.942 1650, 926.703 1654.959, 930.018 1656.260 C 931.186 1656.719, 931.129 1656.859, 929.750 1656.921 C 927.309 1657.031, 927.545 1659, 930 1659 C 931.100 1659, 932 1658.616, 932 1658.147 C 932 1657.678, 934.265 1657.511, 937.033 1657.777 L 942.065 1658.261 941.401 1654.105 C 940.296 1647.193, 945.066 1644.174, 952.579 1647.030 C 957.881 1649.046, 965 1644.725, 965 1639.490 C 965 1637.507, 964.109 1637.105, 958.823 1636.700 C 957.901 1636.629, 957.362 1636.224, 957.624 1635.799 C 957.886 1635.375, 956.739 1635.186, 955.074 1635.380 C 953.369 1635.578, 952.300 1635.324, 952.625 1634.798 C 952.942 1634.284, 953.866 1634.118, 954.677 1634.430 C 955.488 1634.741, 954.594 1633.176, 952.691 1630.952 C 947.717 1625.141, 943.272 1615.506, 940.382 1604.271 C 937.841 1594.392, 936.855 1580.682, 938.367 1576.250 C 939.051 1574.245, 938.807 1574, 936.126 1574 C 934.472 1574, 932.840 1574.450, 932.500 1575 M 931 1578 C 931 1578.733, 931.300 1579.033, 931.667 1578.667 C 932.033 1578.300, 932.033 1577.700, 931.667 1577.333 C 931.300 1576.967, 931 1577.267, 931 1578 M 1387 1579.500 C 1387 1579.775, 1387.225 1580, 1387.500 1580 C 1387.775 1580, 1388 1579.775, 1388 1579.500 C 1388 1579.225, 1387.775 1579, 1387.500 1579 C 1387.225 1579, 1387 1579.225, 1387 1579.500 M 935 1582.500 C 935 1582.775, 935.225 1583, 935.500 1583 C 935.775 1583, 936 1582.775, 936 1582.500 C 936 1582.225, 935.775 1582, 935.500 1582 C 935.225 1582, 935 1582.225, 935 1582.500 M 1396 1584.500 C 1396 1584.775, 1396.225 1585, 1396.500 1585 C 1396.775 1585, 1397 1584.775, 1397 1584.500 C 1397 1584.225, 1396.775 1584, 1396.500 1584 C 1396.225 1584, 1396 1584.225, 1396 1584.500 M 1396 1587 C 1396 1587.733, 1396.300 1588.033, 1396.667 1587.667 C 1397.033 1587.300, 1397.033 1586.700, 1396.667 1586.333 C 1396.300 1585.967, 1396 1586.267, 1396 1587 M 1393 1588.500 C 1393 1588.775, 1393.225 1589, 1393.500 1589 C 1393.775 1589, 1394 1588.775, 1394 1588.500 C 1394 1588.225, 1393.775 1588, 1393.500 1588 C 1393.225 1588, 1393 1588.225, 1393 1588.500 M 915 1596.500 C 915 1596.775, 915.225 1597, 915.500 1597 C 915.775 1597, 916 1596.775, 916 1596.500 C 916 1596.225, 915.775 1596, 915.500 1596 C 915.225 1596, 915 1596.225, 915 1596.500 M 891 1615.500 C 891 1615.775, 891.225 1616, 891.500 1616 C 891.775 1616, 892 1615.775, 892 1615.500 C 892 1615.225, 891.775 1615, 891.500 1615 C 891.225 1615, 891 1615.225, 891 1615.500 M 887 1622.500 C 887 1622.775, 887.225 1623, 887.500 1623 C 887.775 1623, 888 1622.775, 888 1622.500 C 888 1622.225, 887.775 1622, 887.500 1622 C 887.225 1622, 887 1622.225, 887 1622.500 M 879 1627.500 C 879 1627.775, 879.225 1628, 879.500 1628 C 879.775 1628, 880 1627.775, 880 1627.500 C 880 1627.225, 879.775 1627, 879.500 1627 C 879.225 1627, 879 1627.225, 879 1627.500 M 878 1630.500 C 878 1630.775, 878.225 1631, 878.500 1631 C 878.775 1631, 879 1630.775, 879 1630.500 C 879 1630.225, 878.775 1630, 878.500 1630 C 878.225 1630, 878 1630.225, 878 1630.500 M 944 1631.500 C 944 1631.775, 944.225 1632, 944.500 1632 C 944.775 1632, 945 1631.775, 945 1631.500 C 945 1631.225, 944.775 1631, 944.500 1631 C 944.225 1631, 944 1631.225, 944 1631.500 M 950 1631.500 C 950 1631.775, 950.225 1632, 950.500 1632 C 950.775 1632, 951 1631.775, 951 1631.500 C 951 1631.225, 950.775 1631, 950.500 1631 C 950.225 1631, 950 1631.225, 950 1631.500 M 928.667 1632.667 C 927.516 1633.817, 927.938 1635, 929.500 1635 C 930.325 1635, 931 1634.325, 931 1633.500 C 931 1631.938, 929.817 1631.516, 928.667 1632.667 M 929 1633.500 C 929 1633.775, 929.225 1634, 929.500 1634 C 929.775 1634, 930 1633.775, 930 1633.500 C 930 1633.225, 929.775 1633, 929.500 1633 C 929.225 1633, 929 1633.225, 929 1633.500 M 952 1638.500 C 952 1638.775, 952.225 1639, 952.500 1639 C 952.775 1639, 953 1638.775, 953 1638.500 C 953 1638.225, 952.775 1638, 952.500 1638 C 952.225 1638, 952 1638.225, 952 1638.500 M 958.333 1638.667 C 958.700 1639.033, 959.300 1639.033, 959.667 1638.667 C 960.033 1638.300, 959.733 1638, 959 1638 C 958.267 1638, 957.967 1638.300, 958.333 1638.667 M 901.316 1641.250 C 903.042 1645.324, 904.595 1647.985, 905.250 1647.992 C 905.663 1647.996, 906 1646.200, 906 1644 C 906 1640.356, 905.768 1640, 903.393 1640 C 901.692 1640, 900.970 1640.434, 901.316 1641.250 M 939 1640.500 C 939 1640.775, 939.225 1641, 939.500 1641 C 939.775 1641, 940 1640.775, 940 1640.500 C 940 1640.225, 939.775 1640, 939.500 1640 C 939.225 1640, 939 1640.225, 939 1640.500 M 941 1640.500 C 941 1640.775, 941.225 1641, 941.500 1641 C 941.775 1641, 942 1640.775, 942 1640.500 C 942 1640.225, 941.775 1640, 941.500 1640 C 941.225 1640, 941 1640.225, 941 1640.500 M 946 1640.500 C 946 1640.775, 946.225 1641, 946.500 1641 C 946.775 1641, 947 1640.775, 947 1640.500 C 947 1640.225, 946.775 1640, 946.500 1640 C 946.225 1640, 946 1640.225, 946 1640.500 M 950 1640.500 C 950 1640.775, 950.225 1641, 950.500 1641 C 950.775 1641, 951 1640.775, 951 1640.500 C 951 1640.225, 950.775 1640, 950.500 1640 C 950.225 1640, 950 1640.225, 950 1640.500 M 963 1640.500 C 963 1640.775, 963.225 1641, 963.500 1641 C 963.775 1641, 964 1640.775, 964 1640.500 C 964 1640.225, 963.775 1640, 963.500 1640 C 963.225 1640, 963 1640.225, 963 1640.500 M 936 1642.500 C 936 1642.775, 936.225 1643, 936.500 1643 C 936.775 1643, 937 1642.775, 937 1642.500 C 937 1642.225, 936.775 1642, 936.500 1642 C 936.225 1642, 936 1642.225, 936 1642.500 M 940 1642.500 C 940 1642.775, 940.225 1643, 940.500 1643 C 940.775 1643, 941 1642.775, 941 1642.500 C 941 1642.225, 940.775 1642, 940.500 1642 C 940.225 1642, 940 1642.225, 940 1642.500 M 913 1644.500 C 913 1644.775, 913.225 1645, 913.500 1645 C 913.775 1645, 914 1644.775, 914 1644.500 C 914 1644.225, 913.775 1644, 913.500 1644 C 913.225 1644, 913 1644.225, 913 1644.500 M 946.333 1644.667 C 946.700 1645.033, 947.300 1645.033, 947.667 1644.667 C 948.033 1644.300, 947.733 1644, 947 1644 C 946.267 1644, 945.967 1644.300, 946.333 1644.667 M 941 1646 C 940.099 1646.582, 939.975 1646.975, 940.691 1646.985 C 941.346 1646.993, 942.160 1646.550, 942.500 1646 C 943.267 1644.758, 942.921 1644.758, 941 1646 M 936.507 1648.989 C 936.156 1649.557, 936.561 1649.722, 937.459 1649.377 C 938.636 1648.926, 938.873 1649.238, 938.417 1650.639 C 937.934 1652.123, 938.020 1652.206, 938.840 1651.048 C 939.919 1649.524, 939.499 1648, 938 1648 C 937.515 1648, 936.843 1648.445, 936.507 1648.989 M 919 1651 C 919 1651.733, 919.300 1652.033, 919.667 1651.667 C 920.033 1651.300, 920.033 1650.700, 919.667 1650.333 C 919.300 1649.967, 919 1650.267, 919 1651 M 923 1652 C 923 1652.733, 923.300 1653.033, 923.667 1652.667 C 924.033 1652.300, 924.033 1651.700, 923.667 1651.333 C 923.300 1650.967, 923 1651.267, 923 1652 M 916.694 1655.639 C 915.629 1656.704, 916.964 1657.951, 918.526 1657.352 C 919.331 1657.043, 919.740 1656.388, 919.435 1655.895 C 918.787 1654.846, 917.598 1654.735, 916.694 1655.639 M 937 1656 C 937 1656.733, 937.300 1657.033, 937.667 1656.667 C 938.033 1656.300, 938.033 1655.700, 937.667 1655.333 C 937.300 1654.967, 937 1655.267, 937 1656 M 922 1656.500 C 922 1656.775, 922.225 1657, 922.500 1657 C 922.775 1657, 923 1656.775, 923 1656.500 C 923 1656.225, 922.775 1656, 922.500 1656 C 922.225 1656, 922 1656.225, 922 1656.500 M 935 1656.500 C 935 1656.775, 935.225 1657, 935.500 1657 C 935.775 1657, 936 1656.775, 936 1656.500 C 936 1656.225, 935.775 1656, 935.500 1656 C 935.225 1656, 935 1656.225, 935 1656.500 M 913.733 1658.124 C 914.412 1658.808, 915.219 1659.115, 915.526 1658.807 C 915.834 1658.499, 915.279 1657.940, 914.293 1657.564 C 912.868 1657.022, 912.753 1657.136, 913.733 1658.124 M 866 1659.500 C 866 1659.775, 866.225 1660, 866.500 1660 C 866.775 1660, 867 1659.775, 867 1659.500 C 867 1659.225, 866.775 1659, 866.500 1659 C 866.225 1659, 866 1659.225, 866 1659.500 M 912 1659.500 C 912 1659.775, 912.225 1660, 912.500 1660 C 912.775 1660, 913 1659.775, 913 1659.500 C 913 1659.225, 912.775 1659, 912.500 1659 C 912.225 1659, 912 1659.225, 912 1659.500 M 916 1660.500 C 916 1660.775, 916.225 1661, 916.500 1661 C 916.775 1661, 917 1660.775, 917 1660.500 C 917 1660.225, 916.775 1660, 916.500 1660 C 916.225 1660, 916 1660.225, 916 1660.500 M 912 1661.500 C 912 1661.775, 912.225 1662, 912.500 1662 C 912.775 1662, 913 1661.775, 913 1661.500 C 913 1661.225, 912.775 1661, 912.500 1661 C 912.225 1661, 912 1661.225, 912 1661.500 M 868 1663 C 868 1663.733, 868.300 1664.033, 868.667 1663.667 C 869.033 1663.300, 869.033 1662.700, 868.667 1662.333 C 868.300 1661.967, 868 1662.267, 868 1663 M 871 1663 C 871 1663.733, 871.300 1664.033, 871.667 1663.667 C 872.033 1663.300, 872.033 1662.700, 871.667 1662.333 C 871.300 1661.967, 871 1662.267, 871 1663 M 867 1669.500 C 867 1669.775, 867.225 1670, 867.500 1670 C 867.775 1670, 868 1669.775, 868 1669.500 C 868 1669.225, 867.775 1669, 867.500 1669 C 867.225 1669, 867 1669.225, 867 1669.500 M 867.981 1671.523 C 866.924 1672.796, 866.986 1672.943, 868.359 1672.416 C 869.261 1672.069, 870 1671.384, 870 1670.893 C 870 1669.607, 869.421 1669.788, 867.981 1671.523 M 893.571 1693.571 C 891.776 1695.367, 891.764 1695.523, 893.400 1695.838 C 895.621 1696.266, 896.266 1695.621, 895.838 1693.400 C 895.523 1691.764, 895.367 1691.776, 893.571 1693.571 M 878 1696.500 C 878 1696.775, 878.225 1697, 878.500 1697 C 878.775 1697, 879 1696.775, 879 1696.500 C 879 1696.225, 878.775 1696, 878.500 1696 C 878.225 1696, 878 1696.225, 878 1696.500 M 912 1700.500 C 912 1700.775, 912.225 1701, 912.500 1701 C 912.775 1701, 913 1700.775, 913 1700.500 C 913 1700.225, 912.775 1700, 912.500 1700 C 912.225 1700, 912 1700.225, 912 1700.500 M 905 1701.500 C 905 1701.775, 905.225 1702, 905.500 1702 C 905.775 1702, 906 1701.775, 906 1701.500 C 906 1701.225, 905.775 1701, 905.500 1701 C 905.225 1701, 905 1701.225, 905 1701.500 M 895 1703 C 895 1703.733, 895.300 1704.033, 895.667 1703.667 C 896.033 1703.300, 896.033 1702.700, 895.667 1702.333 C 895.300 1701.967, 895 1702.267, 895 1703 M 879 1705.500 C 879 1705.775, 879.225 1706, 879.500 1706 C 879.775 1706, 880 1705.775, 880 1705.500 C 880 1705.225, 879.775 1705, 879.500 1705 C 879.225 1705, 879 1705.225, 879 1705.500 M 938.333 1706.667 C 938.700 1707.033, 939.300 1707.033, 939.667 1706.667 C 940.033 1706.300, 939.733 1706, 939 1706 C 938.267 1706, 937.967 1706.300, 938.333 1706.667 M 896 1709.059 C 896 1709.641, 896.450 1709.840, 897 1709.500 C 897.550 1709.160, 898 1708.684, 898 1708.441 C 898 1708.198, 897.550 1708, 897 1708 C 896.450 1708, 896 1708.477, 896 1709.059 M 902 1709 C 902 1709.733, 902.300 1710.033, 902.667 1709.667 C 903.033 1709.300, 903.033 1708.700, 902.667 1708.333 C 902.300 1707.967, 902 1708.267, 902 1709 M 1222.333 1708.667 C 1222.700 1709.033, 1223.300 1709.033, 1223.667 1708.667 C 1224.033 1708.300, 1223.733 1708, 1223 1708 C 1222.267 1708, 1221.967 1708.300, 1222.333 1708.667 M 1239 1708.500 C 1239 1708.775, 1239.225 1709, 1239.500 1709 C 1239.775 1709, 1240 1708.775, 1240 1708.500 C 1240 1708.225, 1239.775 1708, 1239.500 1708 C 1239.225 1708, 1239 1708.225, 1239 1708.500 M 1257.750 1709.706 C 1258.987 1709.944, 1261.013 1709.944, 1262.250 1709.706 C 1263.487 1709.467, 1262.475 1709.272, 1260 1709.272 C 1257.525 1709.272, 1256.513 1709.467, 1257.750 1709.706 M 904 1711 C 904 1711.733, 904.300 1712.033, 904.667 1711.667 C 905.033 1711.300, 905.033 1710.700, 904.667 1710.333 C 904.300 1709.967, 904 1710.267, 904 1711 M 932.500 1711 C 932.840 1711.550, 933.343 1712, 933.618 1712 C 933.893 1712, 933.840 1711.550, 933.500 1711 C 933.160 1710.450, 932.657 1710, 932.382 1710 C 932.107 1710, 932.160 1710.450, 932.500 1711 M 935 1710.500 C 935 1710.775, 935.225 1711, 935.500 1711 C 935.775 1711, 936 1710.775, 936 1710.500 C 936 1710.225, 935.775 1710, 935.500 1710 C 935.225 1710, 935 1710.225, 935 1710.500 M 958.750 1710.706 C 959.987 1710.944, 962.013 1710.944, 963.250 1710.706 C 964.487 1710.467, 963.475 1710.272, 961 1710.272 C 958.525 1710.272, 957.513 1710.467, 958.750 1710.706 M 1292.768 1710.725 C 1294.565 1710.947, 1297.265 1710.943, 1298.768 1710.715 C 1300.271 1710.486, 1298.800 1710.304, 1295.500 1710.310 C 1292.200 1710.315, 1290.971 1710.502, 1292.768 1710.725 M 888.750 1711.662 C 889.438 1711.940, 890.563 1711.940, 891.250 1711.662 C 891.938 1711.385, 891.375 1711.158, 890 1711.158 C 888.625 1711.158, 888.063 1711.385, 888.750 1711.662 M 1320.813 1711.683 C 1321.534 1711.972, 1322.397 1711.936, 1322.729 1711.604 C 1323.061 1711.272, 1322.471 1711.036, 1321.417 1711.079 C 1320.252 1711.127, 1320.015 1711.364, 1320.813 1711.683 M 880.465 1713.056 C 880.192 1713.499, 880.432 1714.149, 881 1714.500 C 881.568 1714.851, 881.774 1715.557, 881.457 1716.069 C 881.141 1716.581, 881.359 1717, 881.941 1717 C 883.363 1717, 883.278 1715.700, 881.750 1714.053 C 880.735 1712.959, 880.799 1712.810, 882.091 1713.260 C 882.966 1713.565, 884.251 1713.463, 884.947 1713.032 C 885.756 1712.533, 885.264 1712.250, 883.589 1712.250 C 882.145 1712.250, 880.739 1712.613, 880.465 1713.056 M 893 1713 C 893 1713.550, 893.450 1714, 894 1714 C 895.727 1714, 895.086 1716.831, 893.250 1717.311 C 891.672 1717.723, 891.666 1717.779, 893.191 1717.884 C 895.380 1718.034, 896.292 1716.495, 895.497 1713.991 C 894.848 1711.946, 893 1711.212, 893 1713 M 1351.813 1713.683 C 1352.534 1713.972, 1353.397 1713.936, 1353.729 1713.604 C 1354.061 1713.272, 1353.471 1713.036, 1352.417 1713.079 C 1351.252 1713.127, 1351.015 1713.364, 1351.813 1713.683 M 885.333 1714.667 C 885.700 1715.033, 886.300 1715.033, 886.667 1714.667 C 887.033 1714.300, 886.733 1714, 886 1714 C 885.267 1714, 884.967 1714.300, 885.333 1714.667 M 893 1715.500 C 893 1715.775, 893.225 1716, 893.500 1716 C 893.775 1716, 894 1715.775, 894 1715.500 C 894 1715.225, 893.775 1715, 893.500 1715 C 893.225 1715, 893 1715.225, 893 1715.500 M 896.660 1717.190 C 896.369 1718.304, 896.652 1718.938, 897.367 1718.774 C 898.023 1718.623, 898.546 1718.950, 898.530 1719.500 C 898.513 1720.050, 898.050 1720.350, 897.500 1720.167 C 896.950 1719.983, 896.836 1720.169, 897.246 1720.579 C 897.656 1720.990, 899.374 1721.477, 901.062 1721.662 C 903.887 1721.971, 904.107 1721.778, 903.816 1719.249 C 903.589 1717.273, 903.008 1716.583, 901.750 1716.794 C 900.788 1716.955, 900 1716.693, 900 1716.211 C 900 1714.515, 897.141 1715.355, 896.660 1717.190 M 924 1715.500 C 924 1715.775, 924.225 1716, 924.500 1716 C 924.775 1716, 925 1715.775, 925 1715.500 C 925 1715.225, 924.775 1715, 924.500 1715 C 924.225 1715, 924 1715.225, 924 1715.500 M 749.813 1718.683 C 750.534 1718.972, 751.397 1718.936, 751.729 1718.604 C 752.061 1718.272, 751.471 1718.036, 750.417 1718.079 C 749.252 1718.127, 749.015 1718.364, 749.813 1718.683 M 882 1718.500 C 882 1718.775, 882.225 1719, 882.500 1719 C 882.775 1719, 883 1718.775, 883 1718.500 C 883 1718.225, 882.775 1718, 882.500 1718 C 882.225 1718, 882 1718.225, 882 1718.500 M 735.269 1719.693 C 736.242 1719.947, 737.592 1719.930, 738.269 1719.656 C 738.946 1719.382, 738.150 1719.175, 736.500 1719.195 C 734.850 1719.215, 734.296 1719.439, 735.269 1719.693 M 893.656 1720.545 C 893.960 1721.339, 894.612 1721.740, 895.105 1721.435 C 896.345 1720.669, 896.231 1720.303, 894.551 1719.658 C 893.584 1719.287, 893.286 1719.582, 893.656 1720.545 M 901 1719.500 C 901 1719.775, 901.225 1720, 901.500 1720 C 901.775 1720, 902 1719.775, 902 1719.500 C 902 1719.225, 901.775 1719, 901.500 1719 C 901.225 1719, 901 1719.225, 901 1719.500 M 725.813 1720.683 C 726.534 1720.972, 727.397 1720.936, 727.729 1720.604 C 728.061 1720.272, 727.471 1720.036, 726.417 1720.079 C 725.252 1720.127, 725.015 1720.364, 725.813 1720.683 M 891 1721 C 891 1721.733, 891.300 1722.033, 891.667 1721.667 C 892.033 1721.300, 892.033 1720.700, 891.667 1720.333 C 891.300 1719.967, 891 1720.267, 891 1721 M 907.748 1720.586 C 907.397 1720.936, 908.463 1722.360, 910.116 1723.751 C 912.082 1725.406, 913.460 1725.940, 914.103 1725.297 C 914.745 1724.655, 914.544 1723.866, 913.519 1723.016 C 912.178 1721.902, 912.040 1721.987, 912.557 1723.609 C 912.984 1724.947, 912.462 1724.688, 910.772 1722.725 C 909.459 1721.198, 908.098 1720.236, 907.748 1720.586 M 1448 1720.500 C 1448 1720.775, 1448.225 1721, 1448.500 1721 C 1448.775 1721, 1449 1720.775, 1449 1720.500 C 1449 1720.225, 1448.775 1720, 1448.500 1720 C 1448.225 1720, 1448 1720.225, 1448 1720.500 M 1457.813 1721.683 C 1458.534 1721.972, 1459.397 1721.936, 1459.729 1721.604 C 1460.061 1721.272, 1459.471 1721.036, 1458.417 1721.079 C 1457.252 1721.127, 1457.015 1721.364, 1457.813 1721.683 M 895 1723 C 894.099 1723.582, 893.975 1723.975, 894.691 1723.985 C 895.346 1723.993, 896.160 1723.550, 896.500 1723 C 897.267 1721.758, 896.921 1721.758, 895 1723 M 1465.264 1722.718 C 1466.784 1722.947, 1469.034 1722.941, 1470.264 1722.704 C 1471.494 1722.467, 1470.250 1722.279, 1467.500 1722.286 C 1464.750 1722.294, 1463.744 1722.488, 1465.264 1722.718 M 903.754 1725.491 C 904.256 1728.117, 907 1729.040, 907 1726.583 C 907 1725.804, 907.337 1724.978, 907.750 1724.747 C 908.163 1724.517, 907.880 1724.487, 907.123 1724.681 C 906.366 1724.875, 905.190 1724.573, 904.510 1724.009 C 903.569 1723.228, 903.389 1723.582, 903.754 1725.491 M 895 1726.500 C 895 1726.775, 895.225 1727, 895.500 1727 C 895.775 1727, 896 1726.775, 896 1726.500 C 896 1726.225, 895.775 1726, 895.500 1726 C 895.225 1726, 895 1726.225, 895 1726.500 M 1503 1726.500 C 1503 1726.775, 1503.225 1727, 1503.500 1727 C 1503.775 1727, 1504 1726.775, 1504 1726.500 C 1504 1726.225, 1503.775 1726, 1503.500 1726 C 1503.225 1726, 1503 1726.225, 1503 1726.500 M 668 1727.500 C 668 1727.775, 668.225 1728, 668.500 1728 C 668.775 1728, 669 1727.775, 669 1727.500 C 669 1727.225, 668.775 1727, 668.500 1727 C 668.225 1727, 668 1727.225, 668 1727.500 M 660.333 1728.667 C 660.700 1729.033, 661.300 1729.033, 661.667 1728.667 C 662.033 1728.300, 661.733 1728, 661 1728 C 660.267 1728, 659.967 1728.300, 660.333 1728.667 M 890 1728.500 C 890 1728.775, 890.225 1729, 890.500 1729 C 890.775 1729, 891 1728.775, 891 1728.500 C 891 1728.225, 890.775 1728, 890.500 1728 C 890.225 1728, 890 1728.225, 890 1728.500 M 1515 1728.500 C 1515 1728.775, 1515.225 1729, 1515.500 1729 C 1515.775 1729, 1516 1728.775, 1516 1728.500 C 1516 1728.225, 1515.775 1728, 1515.500 1728 C 1515.225 1728, 1515 1728.225, 1515 1728.500 M 644 1731.500 C 644 1731.775, 644.225 1732, 644.500 1732 C 644.775 1732, 645 1731.775, 645 1731.500 C 645 1731.225, 644.775 1731, 644.500 1731 C 644.225 1731, 644 1731.225, 644 1731.500 M 640 1732.500 C 640 1732.775, 640.225 1733, 640.500 1733 C 640.775 1733, 641 1732.775, 641 1732.500 C 641 1732.225, 640.775 1732, 640.500 1732 C 640.225 1732, 640 1732.225, 640 1732.500 M 1535 1732.500 C 1535 1732.775, 1535.225 1733, 1535.500 1733 C 1535.775 1733, 1536 1732.775, 1536 1732.500 C 1536 1732.225, 1535.775 1732, 1535.500 1732 C 1535.225 1732, 1535 1732.225, 1535 1732.500 M 636.333 1733.667 C 636.700 1734.033, 637.300 1734.033, 637.667 1733.667 C 638.033 1733.300, 637.733 1733, 637 1733 C 636.267 1733, 635.967 1733.300, 636.333 1733.667 M 868 1734 C 868 1734.550, 868.477 1735, 869.059 1735 C 869.641 1735, 869.840 1734.550, 869.500 1734 C 869.160 1733.450, 868.684 1733, 868.441 1733 C 868.198 1733, 868 1733.450, 868 1734 M 632.333 1734.667 C 632.700 1735.033, 633.300 1735.033, 633.667 1734.667 C 634.033 1734.300, 633.733 1734, 633 1734 C 632.267 1734, 631.967 1734.300, 632.333 1734.667 M 627 1736.500 C 627 1736.775, 627.225 1737, 627.500 1737 C 627.775 1737, 628 1736.775, 628 1736.500 C 628 1736.225, 627.775 1736, 627.500 1736 C 627.225 1736, 627 1736.225, 627 1736.500 M 629.333 1736.667 C 629.700 1737.033, 630.300 1737.033, 630.667 1736.667 C 631.033 1736.300, 630.733 1736, 630 1736 C 629.267 1736, 628.967 1736.300, 629.333 1736.667 M 621.750 1739.115 C 620.237 1740.244, 619 1741.974, 619 1742.961 C 619 1745.250, 621.546 1747.399, 623.111 1746.432 C 623.829 1745.987, 624.048 1746.114, 623.656 1746.748 C 623.282 1747.353, 624.393 1748.259, 626.251 1748.866 C 629.389 1749.891, 629.423 1749.873, 627.250 1748.342 C 626.013 1747.470, 625 1746.109, 625 1745.319 C 625 1744.529, 624.550 1744.160, 624 1744.500 C 623.450 1744.840, 623 1744.656, 623 1744.090 C 623 1743.525, 622.325 1743.322, 621.500 1743.638 C 620.496 1744.024, 620.005 1743.600, 620.015 1742.357 C 620.024 1741.323, 620.356 1740.943, 620.765 1741.500 C 621.792 1742.897, 625 1743.309, 625 1742.044 C 625 1741.470, 625.788 1740.964, 626.750 1740.921 C 627.850 1740.871, 628.023 1740.651, 627.216 1740.327 C 626.510 1740.043, 625.370 1740.278, 624.683 1740.848 C 623.895 1741.502, 622.891 1741.543, 621.966 1740.958 C 621.160 1740.448, 620.976 1740.024, 621.559 1740.015 C 622.141 1740.007, 623.491 1739.339, 624.559 1738.532 C 625.626 1737.724, 626.050 1737.064, 625.500 1737.063 C 624.950 1737.063, 623.263 1737.987, 621.750 1739.115 M 631 1739.500 C 631 1739.775, 631.225 1740, 631.500 1740 C 631.775 1740, 632 1739.775, 632 1739.500 C 632 1739.225, 631.775 1739, 631.500 1739 C 631.225 1739, 631 1739.225, 631 1739.500 M 1552 1741.500 C 1552 1741.775, 1552.225 1742, 1552.500 1742 C 1552.775 1742, 1553 1741.775, 1553 1741.500 C 1553 1741.225, 1552.775 1741, 1552.500 1741 C 1552.225 1741, 1552 1741.225, 1552 1741.500 M 631 1742.500 C 631 1742.775, 631.225 1743, 631.500 1743 C 631.775 1743, 632 1742.775, 632 1742.500 C 632 1742.225, 631.775 1742, 631.500 1742 C 631.225 1742, 631 1742.225, 631 1742.500 M 875 1742.500 C 875 1742.775, 875.225 1743, 875.500 1743 C 875.775 1743, 876 1742.775, 876 1742.500 C 876 1742.225, 875.775 1742, 875.500 1742 C 875.225 1742, 875 1742.225, 875 1742.500 M 1555 1742.500 C 1555 1742.775, 1555.225 1743, 1555.500 1743 C 1555.775 1743, 1556 1742.775, 1556 1742.500 C 1556 1742.225, 1555.775 1742, 1555.500 1742 C 1555.225 1742, 1555 1742.225, 1555 1742.500 M 631 1744.500 C 631 1744.775, 631.225 1745, 631.500 1745 C 631.775 1745, 632 1744.775, 632 1744.500 C 632 1744.225, 631.775 1744, 631.500 1744 C 631.225 1744, 631 1744.225, 631 1744.500 M 873 1744.500 C 873 1744.775, 873.225 1745, 873.500 1745 C 873.775 1745, 874 1744.775, 874 1744.500 C 874 1744.225, 873.775 1744, 873.500 1744 C 873.225 1744, 873 1744.225, 873 1744.500 M 1549 1747 C 1548.099 1747.582, 1547.975 1747.975, 1548.691 1747.985 C 1549.346 1747.993, 1550.160 1747.550, 1550.500 1747 C 1551.267 1745.758, 1550.921 1745.758, 1549 1747 M 1029 1747.500 C 1029 1747.775, 1029.225 1748, 1029.500 1748 C 1029.775 1748, 1030 1747.775, 1030 1747.500 C 1030 1747.225, 1029.775 1747, 1029.500 1747 C 1029.225 1747, 1029 1747.225, 1029 1747.500 M 631.333 1750.667 C 631.700 1751.033, 632.300 1751.033, 632.667 1750.667 C 633.033 1750.300, 632.733 1750, 632 1750 C 631.267 1750, 630.967 1750.300, 631.333 1750.667 M 635.333 1751.667 C 635.700 1752.033, 636.300 1752.033, 636.667 1751.667 C 637.033 1751.300, 636.733 1751, 636 1751 C 635.267 1751, 634.967 1751.300, 635.333 1751.667 M 648.333 1754.667 C 648.700 1755.033, 649.300 1755.033, 649.667 1754.667 C 650.033 1754.300, 649.733 1754, 649 1754 C 648.267 1754, 647.967 1754.300, 648.333 1754.667 M 1023 1754.500 C 1023 1754.775, 1023.225 1755, 1023.500 1755 C 1023.775 1755, 1024 1754.775, 1024 1754.500 C 1024 1754.225, 1023.775 1754, 1023.500 1754 C 1023.225 1754, 1023 1754.225, 1023 1754.500 M 653.333 1755.667 C 653.700 1756.033, 654.300 1756.033, 654.667 1755.667 C 655.033 1755.300, 654.733 1755, 654 1755 C 653.267 1755, 652.967 1755.300, 653.333 1755.667 M 659.333 1756.667 C 659.700 1757.033, 660.300 1757.033, 660.667 1756.667 C 661.033 1756.300, 660.733 1756, 660 1756 C 659.267 1756, 658.967 1756.300, 659.333 1756.667 M 664.813 1757.683 C 665.534 1757.972, 666.397 1757.936, 666.729 1757.604 C 667.061 1757.272, 666.471 1757.036, 665.417 1757.079 C 664.252 1757.127, 664.015 1757.364, 664.813 1757.683 M 669.333 1758.667 C 669.700 1759.033, 670.300 1759.033, 670.667 1758.667 C 671.033 1758.300, 670.733 1758, 670 1758 C 669.267 1758, 668.967 1758.300, 669.333 1758.667 M 1016.500 1759 C 1016.840 1759.550, 1017.343 1760, 1017.618 1760 C 1017.893 1760, 1017.840 1759.550, 1017.500 1759 C 1017.160 1758.450, 1016.657 1758, 1016.382 1758 C 1016.107 1758, 1016.160 1758.450, 1016.500 1759 M 677 1759.500 C 677 1759.775, 677.225 1760, 677.500 1760 C 677.775 1760, 678 1759.775, 678 1759.500 C 678 1759.225, 677.775 1759, 677.500 1759 C 677.225 1759, 677 1759.225, 677 1759.500 M 688 1760.500 C 688 1760.775, 688.225 1761, 688.500 1761 C 688.775 1761, 689 1760.775, 689 1760.500 C 689 1760.225, 688.775 1760, 688.500 1760 C 688.225 1760, 688 1760.225, 688 1760.500 M 736 1760.500 C 736 1760.775, 736.225 1761, 736.500 1761 C 736.775 1761, 737 1760.775, 737 1760.500 C 737 1760.225, 736.775 1760, 736.500 1760 C 736.225 1760, 736 1760.225, 736 1760.500 M 704.750 1762.662 C 705.438 1762.940, 706.563 1762.940, 707.250 1762.662 C 707.938 1762.385, 707.375 1762.158, 706 1762.158 C 704.625 1762.158, 704.063 1762.385, 704.750 1762.662 M 1468.333 1762.667 C 1468.700 1763.033, 1469.300 1763.033, 1469.667 1762.667 C 1470.033 1762.300, 1469.733 1762, 1469 1762 C 1468.267 1762, 1467.967 1762.300, 1468.333 1762.667 M 711.750 1763.662 C 712.438 1763.940, 713.563 1763.940, 714.250 1763.662 C 714.938 1763.385, 714.375 1763.158, 713 1763.158 C 711.625 1763.158, 711.063 1763.385, 711.750 1763.662 M 719.207 1764.149 C 719.918 1764.600, 722.975 1764.941, 726 1764.906 C 732.644 1764.829, 731.606 1764.301, 723.707 1763.740 C 720.473 1763.510, 718.485 1763.691, 719.207 1764.149 M 735.762 1765.707 C 737.006 1765.946, 738.806 1765.937, 739.762 1765.687 C 740.718 1765.437, 739.700 1765.241, 737.500 1765.252 C 735.300 1765.263, 734.518 1765.468, 735.762 1765.707 M 1424.333 1766.667 C 1424.700 1767.033, 1425.300 1767.033, 1425.667 1766.667 C 1426.033 1766.300, 1425.733 1766, 1425 1766 C 1424.267 1766, 1423.967 1766.300, 1424.333 1766.667 M 757.813 1767.683 C 758.534 1767.972, 759.397 1767.936, 759.729 1767.604 C 760.061 1767.272, 759.471 1767.036, 758.417 1767.079 C 757.252 1767.127, 757.015 1767.364, 757.813 1767.683 M 774.333 1768.667 C 774.700 1769.033, 775.300 1769.033, 775.667 1768.667 C 776.033 1768.300, 775.733 1768, 775 1768 C 774.267 1768, 773.967 1768.300, 774.333 1768.667 M 831 1769 C 831.825 1769.533, 832.950 1769.969, 833.500 1769.969 C 834.050 1769.969, 833.825 1769.533, 833 1769 C 832.175 1768.467, 831.050 1768.031, 830.500 1768.031 C 829.950 1768.031, 830.175 1768.467, 831 1769 M 1399 1768.500 C 1399 1768.775, 1399.225 1769, 1399.500 1769 C 1399.775 1769, 1400 1768.775, 1400 1768.500 C 1400 1768.225, 1399.775 1768, 1399.500 1768 C 1399.225 1768, 1399 1768.225, 1399 1768.500 M 790.333 1769.667 C 790.700 1770.033, 791.300 1770.033, 791.667 1769.667 C 792.033 1769.300, 791.733 1769, 791 1769 C 790.267 1769, 789.967 1769.300, 790.333 1769.667 M 816.750 1770.662 C 817.438 1770.940, 818.563 1770.940, 819.250 1770.662 C 819.938 1770.385, 819.375 1770.158, 818 1770.158 C 816.625 1770.158, 816.063 1770.385, 816.750 1770.662 M 854.333 1770.667 C 854.700 1771.033, 855.300 1771.033, 855.667 1770.667 C 856.033 1770.300, 855.733 1770, 855 1770 C 854.267 1770, 853.967 1770.300, 854.333 1770.667 M 826.750 1771.723 C 828.538 1771.945, 831.462 1771.945, 833.250 1771.723 C 835.038 1771.502, 833.575 1771.320, 830 1771.320 C 826.425 1771.320, 824.962 1771.502, 826.750 1771.723 M 841.750 1772.723 C 843.538 1772.945, 846.462 1772.945, 848.250 1772.723 C 850.038 1772.502, 848.575 1772.320, 845 1772.320 C 841.425 1772.320, 839.962 1772.502, 841.750 1772.723 M 1323.250 1772.689 C 1324.213 1772.941, 1325.787 1772.941, 1326.750 1772.689 C 1327.713 1772.438, 1326.925 1772.232, 1325 1772.232 C 1323.075 1772.232, 1322.287 1772.438, 1323.250 1772.689 M 864.813 1773.683 C 865.534 1773.972, 866.397 1773.936, 866.729 1773.604 C 867.061 1773.272, 866.471 1773.036, 865.417 1773.079 C 864.252 1773.127, 864.015 1773.364, 864.813 1773.683 M 1304 1773.500 C 1304 1773.775, 1304.225 1774, 1304.500 1774 C 1304.775 1774, 1305 1773.775, 1305 1773.500 C 1305 1773.225, 1304.775 1773, 1304.500 1773 C 1304.225 1773, 1304 1773.225, 1304 1773.500 M 1213.750 1776.662 C 1214.438 1776.940, 1215.563 1776.940, 1216.250 1776.662 C 1216.938 1776.385, 1216.375 1776.158, 1215 1776.158 C 1213.625 1776.158, 1213.063 1776.385, 1213.750 1776.662 M 1166.333 1777.667 C 1166.700 1778.033, 1167.300 1778.033, 1167.667 1777.667 C 1168.033 1777.300, 1167.733 1777, 1167 1777 C 1166.267 1777, 1165.967 1777.300, 1166.333 1777.667" stroke="none" fill="black" fill-rule="evenodd"/>
</svg>