<?xml version="1.0" encoding="UTF-8"?>
<svg width="512" height="512" viewBox="0 0 512 512" fill="none" xmlns="http://www.w3.org/2000/svg">
  <!-- Background -->
  <rect width="512" height="512" rx="128" fill="#4f46e5"/>
  
  <!-- Book Shape -->
  <path d="M128 128C128 116.954 136.954 108 148 108H364C375.046 108 384 116.954 384 128V384C384 395.046 375.046 404 364 404H148C136.954 404 128 395.046 128 384V128Z" fill="white"/>
  
  <!-- Book Lines -->
  <rect x="148" y="168" width="216" height="12" rx="6" fill="#E5E7EB"/>
  <rect x="148" y="200" width="216" height="12" rx="6" fill="#E5E7EB"/>
  <rect x="148" y="232" width="216" height="12" rx="6" fill="#E5E7EB"/>
  <rect x="148" y="264" width="216" height="12" rx="6" fill="#E5E7EB"/>
  <rect x="148" y="296" width="216" height="12" rx="6" fill="#E5E7EB"/>
  <rect x="148" y="328" width="140" height="12" rx="6" fill="#E5E7EB"/>
  
  <!-- Sound Wave Icons (representing speech) -->
  <path d="M424 256C424 274.778 408.778 290 390 290C371.222 290 356 274.778 356 256C356 237.222 371.222 222 390 222C408.778 222 424 237.222 424 256Z" fill="#FEF3C7"/>
  <path d="M390 236V276M376 242V270M404 242V270" stroke="#4f46e5" stroke-width="8" stroke-linecap="round" stroke-linejoin="round"/>
  
  <!-- Microphone Icon (representing speech recognition) -->
  <path d="M88 256C88 274.778 103.222 290 122 290C140.778 290 156 274.778 156 256C156 237.222 140.778 222 122 222C103.222 222 88 237.222 88 256Z" fill="#FEF3C7"/>
  <path d="M122 236V276M108 256H136" stroke="#4f46e5" stroke-width="8" stroke-linecap="round" stroke-linejoin="round"/>
</svg>